G75*
%MOIN*%
%OFA0B0*%
%FSLAX25Y25*%
%IPPOS*%
%LPD*%
%AMOC8*
5,1,8,0,0,1.08239X$1,22.5*
%
%ADD10C,0.00400*%
%ADD11C,0.00500*%
D10*
X0097304Y0047700D02*
X0093467Y0047700D01*
X0092700Y0048467D01*
X0092700Y0050002D01*
X0093467Y0050769D01*
X0097304Y0050769D01*
X0093467Y0052304D02*
X0092700Y0053071D01*
X0092700Y0054606D01*
X0093467Y0055373D01*
X0094235Y0055373D01*
X0095002Y0054606D01*
X0095002Y0053071D01*
X0095769Y0052304D01*
X0096537Y0052304D01*
X0097304Y0053071D01*
X0097304Y0054606D01*
X0096537Y0055373D01*
X0098071Y0053839D02*
X0091933Y0053839D01*
X0096537Y0056908D02*
X0097304Y0057675D01*
X0097304Y0059210D01*
X0096537Y0059977D01*
X0095769Y0059977D01*
X0095002Y0059210D01*
X0095002Y0058442D01*
X0095002Y0059210D02*
X0094235Y0059977D01*
X0093467Y0059977D01*
X0092700Y0059210D01*
X0092700Y0057675D01*
X0093467Y0056908D01*
X0017700Y0047700D02*
X0020769Y0047700D01*
X0022304Y0049235D01*
X0020769Y0050769D01*
X0017700Y0050769D01*
X0020002Y0050769D02*
X0020002Y0047700D01*
X0021537Y0055373D02*
X0022304Y0054606D01*
X0022304Y0053071D01*
X0021537Y0052304D01*
X0020769Y0052304D01*
X0020002Y0053071D01*
X0020002Y0054606D01*
X0019235Y0055373D01*
X0018467Y0055373D01*
X0017700Y0054606D01*
X0017700Y0053071D01*
X0018467Y0052304D01*
X0022304Y0056908D02*
X0017700Y0056908D01*
X0017700Y0059210D01*
X0018467Y0059977D01*
X0021537Y0059977D01*
X0022304Y0059210D01*
X0022304Y0056908D01*
X0022304Y0061512D02*
X0017700Y0064581D01*
X0017700Y0061512D02*
X0022304Y0064581D01*
X0130395Y0078822D02*
X0133465Y0083426D01*
X0130395Y0083426D02*
X0133465Y0078822D01*
X0128861Y0081124D02*
X0125791Y0081124D01*
X0124257Y0083426D02*
X0124257Y0080357D01*
X0122722Y0078822D01*
X0121187Y0080357D01*
X0121187Y0083426D01*
X0119653Y0078822D02*
X0119653Y0081891D01*
X0118118Y0083426D01*
X0116583Y0081891D01*
X0116583Y0078822D01*
X0116583Y0081124D02*
X0119653Y0081124D01*
X0115049Y0083426D02*
X0115049Y0078822D01*
X0111980Y0078822D01*
X0110445Y0083426D02*
X0110445Y0080357D01*
X0108910Y0078822D01*
X0107376Y0080357D01*
X0107376Y0083426D01*
X0102772Y0083426D02*
X0105841Y0083426D01*
X0105841Y0078822D01*
X0102772Y0078822D01*
X0104306Y0081124D02*
X0105841Y0081124D01*
X0110839Y0041182D02*
X0107769Y0036578D01*
X0110839Y0036578D02*
X0107769Y0041182D01*
X0106235Y0039647D02*
X0104700Y0041182D01*
X0104700Y0036578D01*
X0106235Y0036578D02*
X0103165Y0036578D01*
X0130395Y0043822D02*
X0133465Y0048426D01*
X0130395Y0048426D02*
X0133465Y0043822D01*
X0128861Y0046124D02*
X0125791Y0046124D01*
X0124257Y0048426D02*
X0124257Y0045357D01*
X0122722Y0043822D01*
X0121187Y0045357D01*
X0121187Y0048426D01*
X0119653Y0043822D02*
X0119653Y0046891D01*
X0118118Y0048426D01*
X0116583Y0046891D01*
X0116583Y0043822D01*
X0116583Y0046124D02*
X0119653Y0046124D01*
X0115049Y0048426D02*
X0115049Y0043822D01*
X0111980Y0043822D01*
X0110445Y0048426D02*
X0110445Y0045357D01*
X0108910Y0043822D01*
X0107376Y0045357D01*
X0107376Y0048426D01*
X0102772Y0048426D02*
X0105841Y0048426D01*
X0105841Y0043822D01*
X0102772Y0043822D01*
X0104306Y0046124D02*
X0105841Y0046124D01*
X0110839Y0006182D02*
X0107769Y0001578D01*
X0110839Y0001578D02*
X0107769Y0006182D01*
X0103165Y0001578D02*
X0106235Y0001578D01*
X0103165Y0004647D01*
X0103165Y0005415D01*
X0103933Y0006182D01*
X0105467Y0006182D01*
X0106235Y0005415D01*
D11*
X0090000Y0070000D02*
X0025000Y0070000D01*
X0025000Y0047500D01*
X0025000Y0037500D01*
X0025000Y0030000D01*
X0025000Y0015000D02*
X0090000Y0015000D01*
X0090000Y0070000D01*
X0025000Y0047500D02*
X-0005000Y0047500D01*
X-0005000Y0037500D01*
X0025000Y0037500D01*
X0025000Y0030000D02*
X-0005000Y0030000D01*
X-0005000Y0020000D01*
X0025000Y0020000D01*
X0042500Y0020000D01*
X0042500Y0030000D01*
X0025000Y0030000D01*
X0025000Y0020000D02*
X0025000Y0015000D01*
X0098500Y0044000D02*
X0171500Y0044000D01*
X0171500Y0047000D01*
X0171502Y0047140D01*
X0171508Y0047280D01*
X0171518Y0047420D01*
X0171531Y0047560D01*
X0171549Y0047699D01*
X0171571Y0047838D01*
X0171596Y0047975D01*
X0171625Y0048113D01*
X0171658Y0048249D01*
X0171695Y0048384D01*
X0171736Y0048518D01*
X0171781Y0048651D01*
X0171829Y0048783D01*
X0171881Y0048913D01*
X0171936Y0049042D01*
X0171995Y0049169D01*
X0172058Y0049295D01*
X0172124Y0049419D01*
X0172193Y0049540D01*
X0172266Y0049660D01*
X0172343Y0049778D01*
X0172422Y0049893D01*
X0172505Y0050007D01*
X0172591Y0050117D01*
X0172680Y0050226D01*
X0172772Y0050332D01*
X0172867Y0050435D01*
X0172964Y0050536D01*
X0173065Y0050633D01*
X0173168Y0050728D01*
X0173274Y0050820D01*
X0173383Y0050909D01*
X0173493Y0050995D01*
X0173607Y0051078D01*
X0173722Y0051157D01*
X0173840Y0051234D01*
X0173960Y0051307D01*
X0174081Y0051376D01*
X0174205Y0051442D01*
X0174331Y0051505D01*
X0174458Y0051564D01*
X0174587Y0051619D01*
X0174717Y0051671D01*
X0174849Y0051719D01*
X0174982Y0051764D01*
X0175116Y0051805D01*
X0175251Y0051842D01*
X0175387Y0051875D01*
X0175525Y0051904D01*
X0175662Y0051929D01*
X0175801Y0051951D01*
X0175940Y0051969D01*
X0176080Y0051982D01*
X0176220Y0051992D01*
X0176360Y0051998D01*
X0176500Y0052000D01*
X0178500Y0052000D01*
X0178640Y0051998D01*
X0178780Y0051992D01*
X0178920Y0051982D01*
X0179060Y0051969D01*
X0179199Y0051951D01*
X0179338Y0051929D01*
X0179475Y0051904D01*
X0179613Y0051875D01*
X0179749Y0051842D01*
X0179884Y0051805D01*
X0180018Y0051764D01*
X0180151Y0051719D01*
X0180283Y0051671D01*
X0180413Y0051619D01*
X0180542Y0051564D01*
X0180669Y0051505D01*
X0180795Y0051442D01*
X0180919Y0051376D01*
X0181040Y0051307D01*
X0181160Y0051234D01*
X0181278Y0051157D01*
X0181393Y0051078D01*
X0181507Y0050995D01*
X0181617Y0050909D01*
X0181726Y0050820D01*
X0181832Y0050728D01*
X0181935Y0050633D01*
X0182036Y0050536D01*
X0182133Y0050435D01*
X0182228Y0050332D01*
X0182320Y0050226D01*
X0182409Y0050117D01*
X0182495Y0050007D01*
X0182578Y0049893D01*
X0182657Y0049778D01*
X0182734Y0049660D01*
X0182807Y0049540D01*
X0182876Y0049419D01*
X0182942Y0049295D01*
X0183005Y0049169D01*
X0183064Y0049042D01*
X0183119Y0048913D01*
X0183171Y0048783D01*
X0183219Y0048651D01*
X0183264Y0048518D01*
X0183305Y0048384D01*
X0183342Y0048249D01*
X0183375Y0048113D01*
X0183404Y0047975D01*
X0183429Y0047838D01*
X0183451Y0047699D01*
X0183469Y0047560D01*
X0183482Y0047420D01*
X0183492Y0047280D01*
X0183498Y0047140D01*
X0183500Y0047000D01*
X0183500Y0044252D01*
X0191988Y0044252D01*
X0191988Y0075748D01*
X0183500Y0075748D01*
X0183500Y0074000D01*
X0183485Y0073854D01*
X0183466Y0073708D01*
X0183443Y0073563D01*
X0183416Y0073418D01*
X0183385Y0073274D01*
X0183351Y0073131D01*
X0183312Y0072989D01*
X0183270Y0072849D01*
X0183225Y0072709D01*
X0183175Y0072570D01*
X0183122Y0072433D01*
X0183065Y0072298D01*
X0183005Y0072164D01*
X0182941Y0072031D01*
X0182873Y0071901D01*
X0182802Y0071772D01*
X0182728Y0071645D01*
X0182650Y0071520D01*
X0182569Y0071397D01*
X0182485Y0071277D01*
X0182398Y0071159D01*
X0182307Y0071043D01*
X0182214Y0070929D01*
X0182117Y0070818D01*
X0182018Y0070710D01*
X0181915Y0070605D01*
X0181810Y0070502D01*
X0181702Y0070402D01*
X0181592Y0070305D01*
X0181479Y0070210D01*
X0181364Y0070119D01*
X0181246Y0070031D01*
X0181126Y0069947D01*
X0181003Y0069865D01*
X0180879Y0069787D01*
X0180752Y0069712D01*
X0180624Y0069640D01*
X0180494Y0069572D01*
X0180362Y0069507D01*
X0180228Y0069446D01*
X0180092Y0069389D01*
X0179956Y0069335D01*
X0179817Y0069285D01*
X0179678Y0069238D01*
X0179537Y0069195D01*
X0179396Y0069156D01*
X0179253Y0069121D01*
X0179109Y0069090D01*
X0178965Y0069062D01*
X0178820Y0069038D01*
X0178674Y0069018D01*
X0178528Y0069002D01*
X0178381Y0068990D01*
X0178234Y0068982D01*
X0178087Y0068978D01*
X0177940Y0068977D01*
X0177793Y0068981D01*
X0177647Y0068988D01*
X0177500Y0069000D01*
X0177353Y0068988D01*
X0177207Y0068981D01*
X0177060Y0068977D01*
X0176913Y0068978D01*
X0176766Y0068982D01*
X0176619Y0068990D01*
X0176472Y0069002D01*
X0176326Y0069018D01*
X0176180Y0069038D01*
X0176035Y0069062D01*
X0175891Y0069090D01*
X0175747Y0069121D01*
X0175604Y0069156D01*
X0175463Y0069195D01*
X0175322Y0069238D01*
X0175183Y0069285D01*
X0175044Y0069335D01*
X0174908Y0069389D01*
X0174772Y0069446D01*
X0174638Y0069507D01*
X0174506Y0069572D01*
X0174376Y0069640D01*
X0174248Y0069712D01*
X0174121Y0069787D01*
X0173997Y0069865D01*
X0173874Y0069947D01*
X0173754Y0070031D01*
X0173636Y0070119D01*
X0173521Y0070210D01*
X0173408Y0070305D01*
X0173298Y0070402D01*
X0173190Y0070502D01*
X0173085Y0070605D01*
X0172982Y0070710D01*
X0172883Y0070818D01*
X0172786Y0070929D01*
X0172693Y0071043D01*
X0172602Y0071159D01*
X0172515Y0071277D01*
X0172431Y0071397D01*
X0172350Y0071520D01*
X0172272Y0071645D01*
X0172198Y0071772D01*
X0172127Y0071901D01*
X0172059Y0072031D01*
X0171995Y0072164D01*
X0171935Y0072298D01*
X0171878Y0072433D01*
X0171825Y0072570D01*
X0171775Y0072709D01*
X0171730Y0072849D01*
X0171688Y0072989D01*
X0171649Y0073131D01*
X0171615Y0073274D01*
X0171584Y0073418D01*
X0171557Y0073563D01*
X0171534Y0073708D01*
X0171515Y0073854D01*
X0171500Y0074000D01*
X0171500Y0076000D01*
X0098500Y0076000D01*
X0098500Y0071811D01*
X0102437Y0071811D01*
X0102437Y0048189D01*
X0098500Y0048189D01*
X0098500Y0044000D01*
X0104406Y0060000D02*
X0104408Y0060125D01*
X0104414Y0060250D01*
X0104424Y0060374D01*
X0104438Y0060498D01*
X0104455Y0060622D01*
X0104477Y0060745D01*
X0104503Y0060867D01*
X0104532Y0060989D01*
X0104565Y0061109D01*
X0104603Y0061228D01*
X0104643Y0061347D01*
X0104688Y0061463D01*
X0104736Y0061578D01*
X0104788Y0061692D01*
X0104844Y0061804D01*
X0104903Y0061914D01*
X0104965Y0062022D01*
X0105031Y0062129D01*
X0105100Y0062233D01*
X0105173Y0062334D01*
X0105248Y0062434D01*
X0105327Y0062531D01*
X0105409Y0062625D01*
X0105494Y0062717D01*
X0105581Y0062806D01*
X0105672Y0062892D01*
X0105765Y0062975D01*
X0105861Y0063056D01*
X0105959Y0063133D01*
X0106059Y0063207D01*
X0106162Y0063278D01*
X0106267Y0063345D01*
X0106375Y0063410D01*
X0106484Y0063470D01*
X0106595Y0063528D01*
X0106708Y0063581D01*
X0106822Y0063631D01*
X0106938Y0063678D01*
X0107055Y0063720D01*
X0107174Y0063759D01*
X0107294Y0063795D01*
X0107415Y0063826D01*
X0107537Y0063854D01*
X0107659Y0063877D01*
X0107783Y0063897D01*
X0107907Y0063913D01*
X0108031Y0063925D01*
X0108156Y0063933D01*
X0108281Y0063937D01*
X0108405Y0063937D01*
X0108530Y0063933D01*
X0108655Y0063925D01*
X0108779Y0063913D01*
X0108903Y0063897D01*
X0109027Y0063877D01*
X0109149Y0063854D01*
X0109271Y0063826D01*
X0109392Y0063795D01*
X0109512Y0063759D01*
X0109631Y0063720D01*
X0109748Y0063678D01*
X0109864Y0063631D01*
X0109978Y0063581D01*
X0110091Y0063528D01*
X0110202Y0063470D01*
X0110312Y0063410D01*
X0110419Y0063345D01*
X0110524Y0063278D01*
X0110627Y0063207D01*
X0110727Y0063133D01*
X0110825Y0063056D01*
X0110921Y0062975D01*
X0111014Y0062892D01*
X0111105Y0062806D01*
X0111192Y0062717D01*
X0111277Y0062625D01*
X0111359Y0062531D01*
X0111438Y0062434D01*
X0111513Y0062334D01*
X0111586Y0062233D01*
X0111655Y0062129D01*
X0111721Y0062022D01*
X0111783Y0061914D01*
X0111842Y0061804D01*
X0111898Y0061692D01*
X0111950Y0061578D01*
X0111998Y0061463D01*
X0112043Y0061347D01*
X0112083Y0061228D01*
X0112121Y0061109D01*
X0112154Y0060989D01*
X0112183Y0060867D01*
X0112209Y0060745D01*
X0112231Y0060622D01*
X0112248Y0060498D01*
X0112262Y0060374D01*
X0112272Y0060250D01*
X0112278Y0060125D01*
X0112280Y0060000D01*
X0112278Y0059875D01*
X0112272Y0059750D01*
X0112262Y0059626D01*
X0112248Y0059502D01*
X0112231Y0059378D01*
X0112209Y0059255D01*
X0112183Y0059133D01*
X0112154Y0059011D01*
X0112121Y0058891D01*
X0112083Y0058772D01*
X0112043Y0058653D01*
X0111998Y0058537D01*
X0111950Y0058422D01*
X0111898Y0058308D01*
X0111842Y0058196D01*
X0111783Y0058086D01*
X0111721Y0057978D01*
X0111655Y0057871D01*
X0111586Y0057767D01*
X0111513Y0057666D01*
X0111438Y0057566D01*
X0111359Y0057469D01*
X0111277Y0057375D01*
X0111192Y0057283D01*
X0111105Y0057194D01*
X0111014Y0057108D01*
X0110921Y0057025D01*
X0110825Y0056944D01*
X0110727Y0056867D01*
X0110627Y0056793D01*
X0110524Y0056722D01*
X0110419Y0056655D01*
X0110311Y0056590D01*
X0110202Y0056530D01*
X0110091Y0056472D01*
X0109978Y0056419D01*
X0109864Y0056369D01*
X0109748Y0056322D01*
X0109631Y0056280D01*
X0109512Y0056241D01*
X0109392Y0056205D01*
X0109271Y0056174D01*
X0109149Y0056146D01*
X0109027Y0056123D01*
X0108903Y0056103D01*
X0108779Y0056087D01*
X0108655Y0056075D01*
X0108530Y0056067D01*
X0108405Y0056063D01*
X0108281Y0056063D01*
X0108156Y0056067D01*
X0108031Y0056075D01*
X0107907Y0056087D01*
X0107783Y0056103D01*
X0107659Y0056123D01*
X0107537Y0056146D01*
X0107415Y0056174D01*
X0107294Y0056205D01*
X0107174Y0056241D01*
X0107055Y0056280D01*
X0106938Y0056322D01*
X0106822Y0056369D01*
X0106708Y0056419D01*
X0106595Y0056472D01*
X0106484Y0056530D01*
X0106374Y0056590D01*
X0106267Y0056655D01*
X0106162Y0056722D01*
X0106059Y0056793D01*
X0105959Y0056867D01*
X0105861Y0056944D01*
X0105765Y0057025D01*
X0105672Y0057108D01*
X0105581Y0057194D01*
X0105494Y0057283D01*
X0105409Y0057375D01*
X0105327Y0057469D01*
X0105248Y0057566D01*
X0105173Y0057666D01*
X0105100Y0057767D01*
X0105031Y0057871D01*
X0104965Y0057978D01*
X0104903Y0058086D01*
X0104844Y0058196D01*
X0104788Y0058308D01*
X0104736Y0058422D01*
X0104688Y0058537D01*
X0104643Y0058653D01*
X0104603Y0058772D01*
X0104565Y0058891D01*
X0104532Y0059011D01*
X0104503Y0059133D01*
X0104477Y0059255D01*
X0104455Y0059378D01*
X0104438Y0059502D01*
X0104424Y0059626D01*
X0104414Y0059750D01*
X0104408Y0059875D01*
X0104406Y0060000D01*
X0167492Y0060000D02*
X0167494Y0060125D01*
X0167500Y0060250D01*
X0167510Y0060374D01*
X0167524Y0060498D01*
X0167541Y0060622D01*
X0167563Y0060745D01*
X0167589Y0060867D01*
X0167618Y0060989D01*
X0167651Y0061109D01*
X0167689Y0061228D01*
X0167729Y0061347D01*
X0167774Y0061463D01*
X0167822Y0061578D01*
X0167874Y0061692D01*
X0167930Y0061804D01*
X0167989Y0061914D01*
X0168051Y0062022D01*
X0168117Y0062129D01*
X0168186Y0062233D01*
X0168259Y0062334D01*
X0168334Y0062434D01*
X0168413Y0062531D01*
X0168495Y0062625D01*
X0168580Y0062717D01*
X0168667Y0062806D01*
X0168758Y0062892D01*
X0168851Y0062975D01*
X0168947Y0063056D01*
X0169045Y0063133D01*
X0169145Y0063207D01*
X0169248Y0063278D01*
X0169353Y0063345D01*
X0169461Y0063410D01*
X0169570Y0063470D01*
X0169681Y0063528D01*
X0169794Y0063581D01*
X0169908Y0063631D01*
X0170024Y0063678D01*
X0170141Y0063720D01*
X0170260Y0063759D01*
X0170380Y0063795D01*
X0170501Y0063826D01*
X0170623Y0063854D01*
X0170745Y0063877D01*
X0170869Y0063897D01*
X0170993Y0063913D01*
X0171117Y0063925D01*
X0171242Y0063933D01*
X0171367Y0063937D01*
X0171491Y0063937D01*
X0171616Y0063933D01*
X0171741Y0063925D01*
X0171865Y0063913D01*
X0171989Y0063897D01*
X0172113Y0063877D01*
X0172235Y0063854D01*
X0172357Y0063826D01*
X0172478Y0063795D01*
X0172598Y0063759D01*
X0172717Y0063720D01*
X0172834Y0063678D01*
X0172950Y0063631D01*
X0173064Y0063581D01*
X0173177Y0063528D01*
X0173288Y0063470D01*
X0173398Y0063410D01*
X0173505Y0063345D01*
X0173610Y0063278D01*
X0173713Y0063207D01*
X0173813Y0063133D01*
X0173911Y0063056D01*
X0174007Y0062975D01*
X0174100Y0062892D01*
X0174191Y0062806D01*
X0174278Y0062717D01*
X0174363Y0062625D01*
X0174445Y0062531D01*
X0174524Y0062434D01*
X0174599Y0062334D01*
X0174672Y0062233D01*
X0174741Y0062129D01*
X0174807Y0062022D01*
X0174869Y0061914D01*
X0174928Y0061804D01*
X0174984Y0061692D01*
X0175036Y0061578D01*
X0175084Y0061463D01*
X0175129Y0061347D01*
X0175169Y0061228D01*
X0175207Y0061109D01*
X0175240Y0060989D01*
X0175269Y0060867D01*
X0175295Y0060745D01*
X0175317Y0060622D01*
X0175334Y0060498D01*
X0175348Y0060374D01*
X0175358Y0060250D01*
X0175364Y0060125D01*
X0175366Y0060000D01*
X0175364Y0059875D01*
X0175358Y0059750D01*
X0175348Y0059626D01*
X0175334Y0059502D01*
X0175317Y0059378D01*
X0175295Y0059255D01*
X0175269Y0059133D01*
X0175240Y0059011D01*
X0175207Y0058891D01*
X0175169Y0058772D01*
X0175129Y0058653D01*
X0175084Y0058537D01*
X0175036Y0058422D01*
X0174984Y0058308D01*
X0174928Y0058196D01*
X0174869Y0058086D01*
X0174807Y0057978D01*
X0174741Y0057871D01*
X0174672Y0057767D01*
X0174599Y0057666D01*
X0174524Y0057566D01*
X0174445Y0057469D01*
X0174363Y0057375D01*
X0174278Y0057283D01*
X0174191Y0057194D01*
X0174100Y0057108D01*
X0174007Y0057025D01*
X0173911Y0056944D01*
X0173813Y0056867D01*
X0173713Y0056793D01*
X0173610Y0056722D01*
X0173505Y0056655D01*
X0173397Y0056590D01*
X0173288Y0056530D01*
X0173177Y0056472D01*
X0173064Y0056419D01*
X0172950Y0056369D01*
X0172834Y0056322D01*
X0172717Y0056280D01*
X0172598Y0056241D01*
X0172478Y0056205D01*
X0172357Y0056174D01*
X0172235Y0056146D01*
X0172113Y0056123D01*
X0171989Y0056103D01*
X0171865Y0056087D01*
X0171741Y0056075D01*
X0171616Y0056067D01*
X0171491Y0056063D01*
X0171367Y0056063D01*
X0171242Y0056067D01*
X0171117Y0056075D01*
X0170993Y0056087D01*
X0170869Y0056103D01*
X0170745Y0056123D01*
X0170623Y0056146D01*
X0170501Y0056174D01*
X0170380Y0056205D01*
X0170260Y0056241D01*
X0170141Y0056280D01*
X0170024Y0056322D01*
X0169908Y0056369D01*
X0169794Y0056419D01*
X0169681Y0056472D01*
X0169570Y0056530D01*
X0169460Y0056590D01*
X0169353Y0056655D01*
X0169248Y0056722D01*
X0169145Y0056793D01*
X0169045Y0056867D01*
X0168947Y0056944D01*
X0168851Y0057025D01*
X0168758Y0057108D01*
X0168667Y0057194D01*
X0168580Y0057283D01*
X0168495Y0057375D01*
X0168413Y0057469D01*
X0168334Y0057566D01*
X0168259Y0057666D01*
X0168186Y0057767D01*
X0168117Y0057871D01*
X0168051Y0057978D01*
X0167989Y0058086D01*
X0167930Y0058196D01*
X0167874Y0058308D01*
X0167822Y0058422D01*
X0167774Y0058537D01*
X0167729Y0058653D01*
X0167689Y0058772D01*
X0167651Y0058891D01*
X0167618Y0059011D01*
X0167589Y0059133D01*
X0167563Y0059255D01*
X0167541Y0059378D01*
X0167524Y0059502D01*
X0167510Y0059626D01*
X0167500Y0059750D01*
X0167494Y0059875D01*
X0167492Y0060000D01*
X0180283Y0060000D02*
X0180285Y0060126D01*
X0180291Y0060251D01*
X0180301Y0060376D01*
X0180315Y0060501D01*
X0180333Y0060625D01*
X0180355Y0060749D01*
X0180380Y0060872D01*
X0180410Y0060994D01*
X0180443Y0061115D01*
X0180481Y0061235D01*
X0180522Y0061353D01*
X0180566Y0061471D01*
X0180615Y0061586D01*
X0180667Y0061701D01*
X0180723Y0061813D01*
X0180782Y0061924D01*
X0180845Y0062033D01*
X0180911Y0062139D01*
X0180981Y0062244D01*
X0181054Y0062346D01*
X0181130Y0062446D01*
X0181209Y0062544D01*
X0181291Y0062638D01*
X0181376Y0062731D01*
X0181464Y0062820D01*
X0181555Y0062907D01*
X0181649Y0062991D01*
X0181745Y0063071D01*
X0181844Y0063149D01*
X0181945Y0063223D01*
X0182048Y0063294D01*
X0182154Y0063362D01*
X0182262Y0063427D01*
X0182371Y0063488D01*
X0182483Y0063545D01*
X0182596Y0063599D01*
X0182711Y0063650D01*
X0182828Y0063696D01*
X0182946Y0063739D01*
X0183065Y0063779D01*
X0183186Y0063814D01*
X0183307Y0063845D01*
X0183430Y0063873D01*
X0183553Y0063897D01*
X0183677Y0063917D01*
X0183801Y0063933D01*
X0183926Y0063945D01*
X0184052Y0063953D01*
X0184177Y0063957D01*
X0184303Y0063957D01*
X0184428Y0063953D01*
X0184554Y0063945D01*
X0184679Y0063933D01*
X0184803Y0063917D01*
X0184927Y0063897D01*
X0185050Y0063873D01*
X0185173Y0063845D01*
X0185294Y0063814D01*
X0185415Y0063779D01*
X0185534Y0063739D01*
X0185652Y0063696D01*
X0185769Y0063650D01*
X0185884Y0063599D01*
X0185997Y0063545D01*
X0186109Y0063488D01*
X0186219Y0063427D01*
X0186326Y0063362D01*
X0186432Y0063294D01*
X0186535Y0063223D01*
X0186636Y0063149D01*
X0186735Y0063071D01*
X0186831Y0062991D01*
X0186925Y0062907D01*
X0187016Y0062820D01*
X0187104Y0062731D01*
X0187189Y0062638D01*
X0187271Y0062544D01*
X0187350Y0062446D01*
X0187426Y0062346D01*
X0187499Y0062244D01*
X0187569Y0062139D01*
X0187635Y0062033D01*
X0187698Y0061924D01*
X0187757Y0061813D01*
X0187813Y0061701D01*
X0187865Y0061586D01*
X0187914Y0061471D01*
X0187958Y0061353D01*
X0187999Y0061235D01*
X0188037Y0061115D01*
X0188070Y0060994D01*
X0188100Y0060872D01*
X0188125Y0060749D01*
X0188147Y0060625D01*
X0188165Y0060501D01*
X0188179Y0060376D01*
X0188189Y0060251D01*
X0188195Y0060126D01*
X0188197Y0060000D01*
X0188195Y0059874D01*
X0188189Y0059749D01*
X0188179Y0059624D01*
X0188165Y0059499D01*
X0188147Y0059375D01*
X0188125Y0059251D01*
X0188100Y0059128D01*
X0188070Y0059006D01*
X0188037Y0058885D01*
X0187999Y0058765D01*
X0187958Y0058647D01*
X0187914Y0058529D01*
X0187865Y0058414D01*
X0187813Y0058299D01*
X0187757Y0058187D01*
X0187698Y0058076D01*
X0187635Y0057967D01*
X0187569Y0057861D01*
X0187499Y0057756D01*
X0187426Y0057654D01*
X0187350Y0057554D01*
X0187271Y0057456D01*
X0187189Y0057362D01*
X0187104Y0057269D01*
X0187016Y0057180D01*
X0186925Y0057093D01*
X0186831Y0057009D01*
X0186735Y0056929D01*
X0186636Y0056851D01*
X0186535Y0056777D01*
X0186432Y0056706D01*
X0186326Y0056638D01*
X0186218Y0056573D01*
X0186109Y0056512D01*
X0185997Y0056455D01*
X0185884Y0056401D01*
X0185769Y0056350D01*
X0185652Y0056304D01*
X0185534Y0056261D01*
X0185415Y0056221D01*
X0185294Y0056186D01*
X0185173Y0056155D01*
X0185050Y0056127D01*
X0184927Y0056103D01*
X0184803Y0056083D01*
X0184679Y0056067D01*
X0184554Y0056055D01*
X0184428Y0056047D01*
X0184303Y0056043D01*
X0184177Y0056043D01*
X0184052Y0056047D01*
X0183926Y0056055D01*
X0183801Y0056067D01*
X0183677Y0056083D01*
X0183553Y0056103D01*
X0183430Y0056127D01*
X0183307Y0056155D01*
X0183186Y0056186D01*
X0183065Y0056221D01*
X0182946Y0056261D01*
X0182828Y0056304D01*
X0182711Y0056350D01*
X0182596Y0056401D01*
X0182483Y0056455D01*
X0182371Y0056512D01*
X0182261Y0056573D01*
X0182154Y0056638D01*
X0182048Y0056706D01*
X0181945Y0056777D01*
X0181844Y0056851D01*
X0181745Y0056929D01*
X0181649Y0057009D01*
X0181555Y0057093D01*
X0181464Y0057180D01*
X0181376Y0057269D01*
X0181291Y0057362D01*
X0181209Y0057456D01*
X0181130Y0057554D01*
X0181054Y0057654D01*
X0180981Y0057756D01*
X0180911Y0057861D01*
X0180845Y0057967D01*
X0180782Y0058076D01*
X0180723Y0058187D01*
X0180667Y0058299D01*
X0180615Y0058414D01*
X0180566Y0058529D01*
X0180522Y0058647D01*
X0180481Y0058765D01*
X0180443Y0058885D01*
X0180410Y0059006D01*
X0180380Y0059128D01*
X0180355Y0059251D01*
X0180333Y0059375D01*
X0180315Y0059499D01*
X0180301Y0059624D01*
X0180291Y0059749D01*
X0180285Y0059874D01*
X0180283Y0060000D01*
X0098500Y0009000D02*
X0171500Y0009000D01*
X0171500Y0012000D01*
X0171502Y0012140D01*
X0171508Y0012280D01*
X0171518Y0012420D01*
X0171531Y0012560D01*
X0171549Y0012699D01*
X0171571Y0012838D01*
X0171596Y0012975D01*
X0171625Y0013113D01*
X0171658Y0013249D01*
X0171695Y0013384D01*
X0171736Y0013518D01*
X0171781Y0013651D01*
X0171829Y0013783D01*
X0171881Y0013913D01*
X0171936Y0014042D01*
X0171995Y0014169D01*
X0172058Y0014295D01*
X0172124Y0014419D01*
X0172193Y0014540D01*
X0172266Y0014660D01*
X0172343Y0014778D01*
X0172422Y0014893D01*
X0172505Y0015007D01*
X0172591Y0015117D01*
X0172680Y0015226D01*
X0172772Y0015332D01*
X0172867Y0015435D01*
X0172964Y0015536D01*
X0173065Y0015633D01*
X0173168Y0015728D01*
X0173274Y0015820D01*
X0173383Y0015909D01*
X0173493Y0015995D01*
X0173607Y0016078D01*
X0173722Y0016157D01*
X0173840Y0016234D01*
X0173960Y0016307D01*
X0174081Y0016376D01*
X0174205Y0016442D01*
X0174331Y0016505D01*
X0174458Y0016564D01*
X0174587Y0016619D01*
X0174717Y0016671D01*
X0174849Y0016719D01*
X0174982Y0016764D01*
X0175116Y0016805D01*
X0175251Y0016842D01*
X0175387Y0016875D01*
X0175525Y0016904D01*
X0175662Y0016929D01*
X0175801Y0016951D01*
X0175940Y0016969D01*
X0176080Y0016982D01*
X0176220Y0016992D01*
X0176360Y0016998D01*
X0176500Y0017000D01*
X0178500Y0017000D01*
X0178640Y0016998D01*
X0178780Y0016992D01*
X0178920Y0016982D01*
X0179060Y0016969D01*
X0179199Y0016951D01*
X0179338Y0016929D01*
X0179475Y0016904D01*
X0179613Y0016875D01*
X0179749Y0016842D01*
X0179884Y0016805D01*
X0180018Y0016764D01*
X0180151Y0016719D01*
X0180283Y0016671D01*
X0180413Y0016619D01*
X0180542Y0016564D01*
X0180669Y0016505D01*
X0180795Y0016442D01*
X0180919Y0016376D01*
X0181040Y0016307D01*
X0181160Y0016234D01*
X0181278Y0016157D01*
X0181393Y0016078D01*
X0181507Y0015995D01*
X0181617Y0015909D01*
X0181726Y0015820D01*
X0181832Y0015728D01*
X0181935Y0015633D01*
X0182036Y0015536D01*
X0182133Y0015435D01*
X0182228Y0015332D01*
X0182320Y0015226D01*
X0182409Y0015117D01*
X0182495Y0015007D01*
X0182578Y0014893D01*
X0182657Y0014778D01*
X0182734Y0014660D01*
X0182807Y0014540D01*
X0182876Y0014419D01*
X0182942Y0014295D01*
X0183005Y0014169D01*
X0183064Y0014042D01*
X0183119Y0013913D01*
X0183171Y0013783D01*
X0183219Y0013651D01*
X0183264Y0013518D01*
X0183305Y0013384D01*
X0183342Y0013249D01*
X0183375Y0013113D01*
X0183404Y0012975D01*
X0183429Y0012838D01*
X0183451Y0012699D01*
X0183469Y0012560D01*
X0183482Y0012420D01*
X0183492Y0012280D01*
X0183498Y0012140D01*
X0183500Y0012000D01*
X0183500Y0009252D01*
X0191988Y0009252D01*
X0191988Y0040748D01*
X0183500Y0040748D01*
X0183500Y0039000D01*
X0183485Y0038854D01*
X0183466Y0038708D01*
X0183443Y0038563D01*
X0183416Y0038418D01*
X0183385Y0038274D01*
X0183351Y0038131D01*
X0183312Y0037989D01*
X0183270Y0037849D01*
X0183225Y0037709D01*
X0183175Y0037570D01*
X0183122Y0037433D01*
X0183065Y0037298D01*
X0183005Y0037164D01*
X0182941Y0037031D01*
X0182873Y0036901D01*
X0182802Y0036772D01*
X0182728Y0036645D01*
X0182650Y0036520D01*
X0182569Y0036397D01*
X0182485Y0036277D01*
X0182398Y0036159D01*
X0182307Y0036043D01*
X0182214Y0035929D01*
X0182117Y0035818D01*
X0182018Y0035710D01*
X0181915Y0035605D01*
X0181810Y0035502D01*
X0181702Y0035402D01*
X0181592Y0035305D01*
X0181479Y0035210D01*
X0181364Y0035119D01*
X0181246Y0035031D01*
X0181126Y0034947D01*
X0181003Y0034865D01*
X0180879Y0034787D01*
X0180752Y0034712D01*
X0180624Y0034640D01*
X0180494Y0034572D01*
X0180362Y0034507D01*
X0180228Y0034446D01*
X0180092Y0034389D01*
X0179956Y0034335D01*
X0179817Y0034285D01*
X0179678Y0034238D01*
X0179537Y0034195D01*
X0179396Y0034156D01*
X0179253Y0034121D01*
X0179109Y0034090D01*
X0178965Y0034062D01*
X0178820Y0034038D01*
X0178674Y0034018D01*
X0178528Y0034002D01*
X0178381Y0033990D01*
X0178234Y0033982D01*
X0178087Y0033978D01*
X0177940Y0033977D01*
X0177793Y0033981D01*
X0177647Y0033988D01*
X0177500Y0034000D01*
X0177353Y0033988D01*
X0177207Y0033981D01*
X0177060Y0033977D01*
X0176913Y0033978D01*
X0176766Y0033982D01*
X0176619Y0033990D01*
X0176472Y0034002D01*
X0176326Y0034018D01*
X0176180Y0034038D01*
X0176035Y0034062D01*
X0175891Y0034090D01*
X0175747Y0034121D01*
X0175604Y0034156D01*
X0175463Y0034195D01*
X0175322Y0034238D01*
X0175183Y0034285D01*
X0175044Y0034335D01*
X0174908Y0034389D01*
X0174772Y0034446D01*
X0174638Y0034507D01*
X0174506Y0034572D01*
X0174376Y0034640D01*
X0174248Y0034712D01*
X0174121Y0034787D01*
X0173997Y0034865D01*
X0173874Y0034947D01*
X0173754Y0035031D01*
X0173636Y0035119D01*
X0173521Y0035210D01*
X0173408Y0035305D01*
X0173298Y0035402D01*
X0173190Y0035502D01*
X0173085Y0035605D01*
X0172982Y0035710D01*
X0172883Y0035818D01*
X0172786Y0035929D01*
X0172693Y0036043D01*
X0172602Y0036159D01*
X0172515Y0036277D01*
X0172431Y0036397D01*
X0172350Y0036520D01*
X0172272Y0036645D01*
X0172198Y0036772D01*
X0172127Y0036901D01*
X0172059Y0037031D01*
X0171995Y0037164D01*
X0171935Y0037298D01*
X0171878Y0037433D01*
X0171825Y0037570D01*
X0171775Y0037709D01*
X0171730Y0037849D01*
X0171688Y0037989D01*
X0171649Y0038131D01*
X0171615Y0038274D01*
X0171584Y0038418D01*
X0171557Y0038563D01*
X0171534Y0038708D01*
X0171515Y0038854D01*
X0171500Y0039000D01*
X0171500Y0041000D01*
X0098500Y0041000D01*
X0098500Y0036811D01*
X0102437Y0036811D01*
X0102437Y0013189D01*
X0098500Y0013189D01*
X0098500Y0009000D01*
X0104406Y0025000D02*
X0104408Y0025125D01*
X0104414Y0025250D01*
X0104424Y0025374D01*
X0104438Y0025498D01*
X0104455Y0025622D01*
X0104477Y0025745D01*
X0104503Y0025867D01*
X0104532Y0025989D01*
X0104565Y0026109D01*
X0104603Y0026228D01*
X0104643Y0026347D01*
X0104688Y0026463D01*
X0104736Y0026578D01*
X0104788Y0026692D01*
X0104844Y0026804D01*
X0104903Y0026914D01*
X0104965Y0027022D01*
X0105031Y0027129D01*
X0105100Y0027233D01*
X0105173Y0027334D01*
X0105248Y0027434D01*
X0105327Y0027531D01*
X0105409Y0027625D01*
X0105494Y0027717D01*
X0105581Y0027806D01*
X0105672Y0027892D01*
X0105765Y0027975D01*
X0105861Y0028056D01*
X0105959Y0028133D01*
X0106059Y0028207D01*
X0106162Y0028278D01*
X0106267Y0028345D01*
X0106375Y0028410D01*
X0106484Y0028470D01*
X0106595Y0028528D01*
X0106708Y0028581D01*
X0106822Y0028631D01*
X0106938Y0028678D01*
X0107055Y0028720D01*
X0107174Y0028759D01*
X0107294Y0028795D01*
X0107415Y0028826D01*
X0107537Y0028854D01*
X0107659Y0028877D01*
X0107783Y0028897D01*
X0107907Y0028913D01*
X0108031Y0028925D01*
X0108156Y0028933D01*
X0108281Y0028937D01*
X0108405Y0028937D01*
X0108530Y0028933D01*
X0108655Y0028925D01*
X0108779Y0028913D01*
X0108903Y0028897D01*
X0109027Y0028877D01*
X0109149Y0028854D01*
X0109271Y0028826D01*
X0109392Y0028795D01*
X0109512Y0028759D01*
X0109631Y0028720D01*
X0109748Y0028678D01*
X0109864Y0028631D01*
X0109978Y0028581D01*
X0110091Y0028528D01*
X0110202Y0028470D01*
X0110312Y0028410D01*
X0110419Y0028345D01*
X0110524Y0028278D01*
X0110627Y0028207D01*
X0110727Y0028133D01*
X0110825Y0028056D01*
X0110921Y0027975D01*
X0111014Y0027892D01*
X0111105Y0027806D01*
X0111192Y0027717D01*
X0111277Y0027625D01*
X0111359Y0027531D01*
X0111438Y0027434D01*
X0111513Y0027334D01*
X0111586Y0027233D01*
X0111655Y0027129D01*
X0111721Y0027022D01*
X0111783Y0026914D01*
X0111842Y0026804D01*
X0111898Y0026692D01*
X0111950Y0026578D01*
X0111998Y0026463D01*
X0112043Y0026347D01*
X0112083Y0026228D01*
X0112121Y0026109D01*
X0112154Y0025989D01*
X0112183Y0025867D01*
X0112209Y0025745D01*
X0112231Y0025622D01*
X0112248Y0025498D01*
X0112262Y0025374D01*
X0112272Y0025250D01*
X0112278Y0025125D01*
X0112280Y0025000D01*
X0112278Y0024875D01*
X0112272Y0024750D01*
X0112262Y0024626D01*
X0112248Y0024502D01*
X0112231Y0024378D01*
X0112209Y0024255D01*
X0112183Y0024133D01*
X0112154Y0024011D01*
X0112121Y0023891D01*
X0112083Y0023772D01*
X0112043Y0023653D01*
X0111998Y0023537D01*
X0111950Y0023422D01*
X0111898Y0023308D01*
X0111842Y0023196D01*
X0111783Y0023086D01*
X0111721Y0022978D01*
X0111655Y0022871D01*
X0111586Y0022767D01*
X0111513Y0022666D01*
X0111438Y0022566D01*
X0111359Y0022469D01*
X0111277Y0022375D01*
X0111192Y0022283D01*
X0111105Y0022194D01*
X0111014Y0022108D01*
X0110921Y0022025D01*
X0110825Y0021944D01*
X0110727Y0021867D01*
X0110627Y0021793D01*
X0110524Y0021722D01*
X0110419Y0021655D01*
X0110311Y0021590D01*
X0110202Y0021530D01*
X0110091Y0021472D01*
X0109978Y0021419D01*
X0109864Y0021369D01*
X0109748Y0021322D01*
X0109631Y0021280D01*
X0109512Y0021241D01*
X0109392Y0021205D01*
X0109271Y0021174D01*
X0109149Y0021146D01*
X0109027Y0021123D01*
X0108903Y0021103D01*
X0108779Y0021087D01*
X0108655Y0021075D01*
X0108530Y0021067D01*
X0108405Y0021063D01*
X0108281Y0021063D01*
X0108156Y0021067D01*
X0108031Y0021075D01*
X0107907Y0021087D01*
X0107783Y0021103D01*
X0107659Y0021123D01*
X0107537Y0021146D01*
X0107415Y0021174D01*
X0107294Y0021205D01*
X0107174Y0021241D01*
X0107055Y0021280D01*
X0106938Y0021322D01*
X0106822Y0021369D01*
X0106708Y0021419D01*
X0106595Y0021472D01*
X0106484Y0021530D01*
X0106374Y0021590D01*
X0106267Y0021655D01*
X0106162Y0021722D01*
X0106059Y0021793D01*
X0105959Y0021867D01*
X0105861Y0021944D01*
X0105765Y0022025D01*
X0105672Y0022108D01*
X0105581Y0022194D01*
X0105494Y0022283D01*
X0105409Y0022375D01*
X0105327Y0022469D01*
X0105248Y0022566D01*
X0105173Y0022666D01*
X0105100Y0022767D01*
X0105031Y0022871D01*
X0104965Y0022978D01*
X0104903Y0023086D01*
X0104844Y0023196D01*
X0104788Y0023308D01*
X0104736Y0023422D01*
X0104688Y0023537D01*
X0104643Y0023653D01*
X0104603Y0023772D01*
X0104565Y0023891D01*
X0104532Y0024011D01*
X0104503Y0024133D01*
X0104477Y0024255D01*
X0104455Y0024378D01*
X0104438Y0024502D01*
X0104424Y0024626D01*
X0104414Y0024750D01*
X0104408Y0024875D01*
X0104406Y0025000D01*
X0167492Y0025000D02*
X0167494Y0025125D01*
X0167500Y0025250D01*
X0167510Y0025374D01*
X0167524Y0025498D01*
X0167541Y0025622D01*
X0167563Y0025745D01*
X0167589Y0025867D01*
X0167618Y0025989D01*
X0167651Y0026109D01*
X0167689Y0026228D01*
X0167729Y0026347D01*
X0167774Y0026463D01*
X0167822Y0026578D01*
X0167874Y0026692D01*
X0167930Y0026804D01*
X0167989Y0026914D01*
X0168051Y0027022D01*
X0168117Y0027129D01*
X0168186Y0027233D01*
X0168259Y0027334D01*
X0168334Y0027434D01*
X0168413Y0027531D01*
X0168495Y0027625D01*
X0168580Y0027717D01*
X0168667Y0027806D01*
X0168758Y0027892D01*
X0168851Y0027975D01*
X0168947Y0028056D01*
X0169045Y0028133D01*
X0169145Y0028207D01*
X0169248Y0028278D01*
X0169353Y0028345D01*
X0169461Y0028410D01*
X0169570Y0028470D01*
X0169681Y0028528D01*
X0169794Y0028581D01*
X0169908Y0028631D01*
X0170024Y0028678D01*
X0170141Y0028720D01*
X0170260Y0028759D01*
X0170380Y0028795D01*
X0170501Y0028826D01*
X0170623Y0028854D01*
X0170745Y0028877D01*
X0170869Y0028897D01*
X0170993Y0028913D01*
X0171117Y0028925D01*
X0171242Y0028933D01*
X0171367Y0028937D01*
X0171491Y0028937D01*
X0171616Y0028933D01*
X0171741Y0028925D01*
X0171865Y0028913D01*
X0171989Y0028897D01*
X0172113Y0028877D01*
X0172235Y0028854D01*
X0172357Y0028826D01*
X0172478Y0028795D01*
X0172598Y0028759D01*
X0172717Y0028720D01*
X0172834Y0028678D01*
X0172950Y0028631D01*
X0173064Y0028581D01*
X0173177Y0028528D01*
X0173288Y0028470D01*
X0173398Y0028410D01*
X0173505Y0028345D01*
X0173610Y0028278D01*
X0173713Y0028207D01*
X0173813Y0028133D01*
X0173911Y0028056D01*
X0174007Y0027975D01*
X0174100Y0027892D01*
X0174191Y0027806D01*
X0174278Y0027717D01*
X0174363Y0027625D01*
X0174445Y0027531D01*
X0174524Y0027434D01*
X0174599Y0027334D01*
X0174672Y0027233D01*
X0174741Y0027129D01*
X0174807Y0027022D01*
X0174869Y0026914D01*
X0174928Y0026804D01*
X0174984Y0026692D01*
X0175036Y0026578D01*
X0175084Y0026463D01*
X0175129Y0026347D01*
X0175169Y0026228D01*
X0175207Y0026109D01*
X0175240Y0025989D01*
X0175269Y0025867D01*
X0175295Y0025745D01*
X0175317Y0025622D01*
X0175334Y0025498D01*
X0175348Y0025374D01*
X0175358Y0025250D01*
X0175364Y0025125D01*
X0175366Y0025000D01*
X0175364Y0024875D01*
X0175358Y0024750D01*
X0175348Y0024626D01*
X0175334Y0024502D01*
X0175317Y0024378D01*
X0175295Y0024255D01*
X0175269Y0024133D01*
X0175240Y0024011D01*
X0175207Y0023891D01*
X0175169Y0023772D01*
X0175129Y0023653D01*
X0175084Y0023537D01*
X0175036Y0023422D01*
X0174984Y0023308D01*
X0174928Y0023196D01*
X0174869Y0023086D01*
X0174807Y0022978D01*
X0174741Y0022871D01*
X0174672Y0022767D01*
X0174599Y0022666D01*
X0174524Y0022566D01*
X0174445Y0022469D01*
X0174363Y0022375D01*
X0174278Y0022283D01*
X0174191Y0022194D01*
X0174100Y0022108D01*
X0174007Y0022025D01*
X0173911Y0021944D01*
X0173813Y0021867D01*
X0173713Y0021793D01*
X0173610Y0021722D01*
X0173505Y0021655D01*
X0173397Y0021590D01*
X0173288Y0021530D01*
X0173177Y0021472D01*
X0173064Y0021419D01*
X0172950Y0021369D01*
X0172834Y0021322D01*
X0172717Y0021280D01*
X0172598Y0021241D01*
X0172478Y0021205D01*
X0172357Y0021174D01*
X0172235Y0021146D01*
X0172113Y0021123D01*
X0171989Y0021103D01*
X0171865Y0021087D01*
X0171741Y0021075D01*
X0171616Y0021067D01*
X0171491Y0021063D01*
X0171367Y0021063D01*
X0171242Y0021067D01*
X0171117Y0021075D01*
X0170993Y0021087D01*
X0170869Y0021103D01*
X0170745Y0021123D01*
X0170623Y0021146D01*
X0170501Y0021174D01*
X0170380Y0021205D01*
X0170260Y0021241D01*
X0170141Y0021280D01*
X0170024Y0021322D01*
X0169908Y0021369D01*
X0169794Y0021419D01*
X0169681Y0021472D01*
X0169570Y0021530D01*
X0169460Y0021590D01*
X0169353Y0021655D01*
X0169248Y0021722D01*
X0169145Y0021793D01*
X0169045Y0021867D01*
X0168947Y0021944D01*
X0168851Y0022025D01*
X0168758Y0022108D01*
X0168667Y0022194D01*
X0168580Y0022283D01*
X0168495Y0022375D01*
X0168413Y0022469D01*
X0168334Y0022566D01*
X0168259Y0022666D01*
X0168186Y0022767D01*
X0168117Y0022871D01*
X0168051Y0022978D01*
X0167989Y0023086D01*
X0167930Y0023196D01*
X0167874Y0023308D01*
X0167822Y0023422D01*
X0167774Y0023537D01*
X0167729Y0023653D01*
X0167689Y0023772D01*
X0167651Y0023891D01*
X0167618Y0024011D01*
X0167589Y0024133D01*
X0167563Y0024255D01*
X0167541Y0024378D01*
X0167524Y0024502D01*
X0167510Y0024626D01*
X0167500Y0024750D01*
X0167494Y0024875D01*
X0167492Y0025000D01*
X0180283Y0025000D02*
X0180285Y0025126D01*
X0180291Y0025251D01*
X0180301Y0025376D01*
X0180315Y0025501D01*
X0180333Y0025625D01*
X0180355Y0025749D01*
X0180380Y0025872D01*
X0180410Y0025994D01*
X0180443Y0026115D01*
X0180481Y0026235D01*
X0180522Y0026353D01*
X0180566Y0026471D01*
X0180615Y0026586D01*
X0180667Y0026701D01*
X0180723Y0026813D01*
X0180782Y0026924D01*
X0180845Y0027033D01*
X0180911Y0027139D01*
X0180981Y0027244D01*
X0181054Y0027346D01*
X0181130Y0027446D01*
X0181209Y0027544D01*
X0181291Y0027638D01*
X0181376Y0027731D01*
X0181464Y0027820D01*
X0181555Y0027907D01*
X0181649Y0027991D01*
X0181745Y0028071D01*
X0181844Y0028149D01*
X0181945Y0028223D01*
X0182048Y0028294D01*
X0182154Y0028362D01*
X0182262Y0028427D01*
X0182371Y0028488D01*
X0182483Y0028545D01*
X0182596Y0028599D01*
X0182711Y0028650D01*
X0182828Y0028696D01*
X0182946Y0028739D01*
X0183065Y0028779D01*
X0183186Y0028814D01*
X0183307Y0028845D01*
X0183430Y0028873D01*
X0183553Y0028897D01*
X0183677Y0028917D01*
X0183801Y0028933D01*
X0183926Y0028945D01*
X0184052Y0028953D01*
X0184177Y0028957D01*
X0184303Y0028957D01*
X0184428Y0028953D01*
X0184554Y0028945D01*
X0184679Y0028933D01*
X0184803Y0028917D01*
X0184927Y0028897D01*
X0185050Y0028873D01*
X0185173Y0028845D01*
X0185294Y0028814D01*
X0185415Y0028779D01*
X0185534Y0028739D01*
X0185652Y0028696D01*
X0185769Y0028650D01*
X0185884Y0028599D01*
X0185997Y0028545D01*
X0186109Y0028488D01*
X0186219Y0028427D01*
X0186326Y0028362D01*
X0186432Y0028294D01*
X0186535Y0028223D01*
X0186636Y0028149D01*
X0186735Y0028071D01*
X0186831Y0027991D01*
X0186925Y0027907D01*
X0187016Y0027820D01*
X0187104Y0027731D01*
X0187189Y0027638D01*
X0187271Y0027544D01*
X0187350Y0027446D01*
X0187426Y0027346D01*
X0187499Y0027244D01*
X0187569Y0027139D01*
X0187635Y0027033D01*
X0187698Y0026924D01*
X0187757Y0026813D01*
X0187813Y0026701D01*
X0187865Y0026586D01*
X0187914Y0026471D01*
X0187958Y0026353D01*
X0187999Y0026235D01*
X0188037Y0026115D01*
X0188070Y0025994D01*
X0188100Y0025872D01*
X0188125Y0025749D01*
X0188147Y0025625D01*
X0188165Y0025501D01*
X0188179Y0025376D01*
X0188189Y0025251D01*
X0188195Y0025126D01*
X0188197Y0025000D01*
X0188195Y0024874D01*
X0188189Y0024749D01*
X0188179Y0024624D01*
X0188165Y0024499D01*
X0188147Y0024375D01*
X0188125Y0024251D01*
X0188100Y0024128D01*
X0188070Y0024006D01*
X0188037Y0023885D01*
X0187999Y0023765D01*
X0187958Y0023647D01*
X0187914Y0023529D01*
X0187865Y0023414D01*
X0187813Y0023299D01*
X0187757Y0023187D01*
X0187698Y0023076D01*
X0187635Y0022967D01*
X0187569Y0022861D01*
X0187499Y0022756D01*
X0187426Y0022654D01*
X0187350Y0022554D01*
X0187271Y0022456D01*
X0187189Y0022362D01*
X0187104Y0022269D01*
X0187016Y0022180D01*
X0186925Y0022093D01*
X0186831Y0022009D01*
X0186735Y0021929D01*
X0186636Y0021851D01*
X0186535Y0021777D01*
X0186432Y0021706D01*
X0186326Y0021638D01*
X0186218Y0021573D01*
X0186109Y0021512D01*
X0185997Y0021455D01*
X0185884Y0021401D01*
X0185769Y0021350D01*
X0185652Y0021304D01*
X0185534Y0021261D01*
X0185415Y0021221D01*
X0185294Y0021186D01*
X0185173Y0021155D01*
X0185050Y0021127D01*
X0184927Y0021103D01*
X0184803Y0021083D01*
X0184679Y0021067D01*
X0184554Y0021055D01*
X0184428Y0021047D01*
X0184303Y0021043D01*
X0184177Y0021043D01*
X0184052Y0021047D01*
X0183926Y0021055D01*
X0183801Y0021067D01*
X0183677Y0021083D01*
X0183553Y0021103D01*
X0183430Y0021127D01*
X0183307Y0021155D01*
X0183186Y0021186D01*
X0183065Y0021221D01*
X0182946Y0021261D01*
X0182828Y0021304D01*
X0182711Y0021350D01*
X0182596Y0021401D01*
X0182483Y0021455D01*
X0182371Y0021512D01*
X0182261Y0021573D01*
X0182154Y0021638D01*
X0182048Y0021706D01*
X0181945Y0021777D01*
X0181844Y0021851D01*
X0181745Y0021929D01*
X0181649Y0022009D01*
X0181555Y0022093D01*
X0181464Y0022180D01*
X0181376Y0022269D01*
X0181291Y0022362D01*
X0181209Y0022456D01*
X0181130Y0022554D01*
X0181054Y0022654D01*
X0180981Y0022756D01*
X0180911Y0022861D01*
X0180845Y0022967D01*
X0180782Y0023076D01*
X0180723Y0023187D01*
X0180667Y0023299D01*
X0180615Y0023414D01*
X0180566Y0023529D01*
X0180522Y0023647D01*
X0180481Y0023765D01*
X0180443Y0023885D01*
X0180410Y0024006D01*
X0180380Y0024128D01*
X0180355Y0024251D01*
X0180333Y0024375D01*
X0180315Y0024499D01*
X0180301Y0024624D01*
X0180291Y0024749D01*
X0180285Y0024874D01*
X0180283Y0025000D01*
M02*
