%
M48
M72
T01C0.02362
T02C0.03150
%
T01
X74750Y60141
X79250Y64141
X68250Y68641
X70250Y73641
X68750Y82641
X35750Y86141
X117250Y78141
X126250Y75141
X123750Y60141
X108750Y55141
X91250Y47641
X68750Y39141
X88750Y30141
X33750Y32641
X28750Y37641
X31250Y42641
X26750Y47141
X116250Y37641
X127250Y40141
X161250Y62641
X156250Y20141
X111250Y95141
T02
X48750Y25141
X58750Y25141
X68750Y25141
X78750Y25141
X103750Y32267
X103750Y48016
X103750Y67267
X103750Y83016
X78750Y90141
X68750Y90141
X58750Y90141
X48750Y90141
X183750Y61141
X183750Y54141
X183750Y26141
X183750Y89141
M30
