G75*
%MOIN*%
%OFA0B0*%
%FSLAX25Y25*%
%IPPOS*%
%LPD*%
%AMOC8*
5,1,8,0,0,1.08239X$1,22.5*
%
%ADD10C,0.00000*%
%ADD11R,0.04331X0.03937*%
%ADD12R,0.05000X0.10000*%
%ADD13C,0.05000*%
%ADD14R,0.24409X0.22835*%
%ADD15R,0.11811X0.06299*%
%ADD16R,0.05600X0.05600*%
%ADD17R,0.01575X0.04724*%
%ADD18C,0.05600*%
%ADD19R,0.03150X0.03150*%
%ADD20R,0.03937X0.04331*%
%ADD21R,0.06299X0.07087*%
%ADD22R,0.07087X0.06299*%
%ADD23R,0.05900X0.07900*%
%ADD24R,0.15000X0.07900*%
%ADD25R,0.06299X0.13780*%
%ADD26R,0.01969X0.02756*%
%ADD27R,0.15000X0.07600*%
%ADD28R,0.07000X0.03600*%
%ADD29C,0.01600*%
%ADD30R,0.03562X0.03562*%
%ADD31C,0.03200*%
%ADD32C,0.10000*%
%ADD33C,0.07000*%
D10*
X0016250Y0015141D02*
X0016250Y0100102D01*
X0193951Y0100102D01*
X0193951Y0015141D01*
X0016250Y0015141D01*
D11*
X0052904Y0045641D03*
X0059596Y0045641D03*
X0083404Y0043141D03*
X0090096Y0043141D03*
X0111250Y0043488D03*
X0111250Y0036795D03*
X0111250Y0071795D03*
X0111250Y0078488D03*
D12*
X0095750Y0090641D03*
X0087750Y0090641D03*
D13*
X0088750Y0022641D03*
X0098750Y0022641D03*
X0108750Y0022641D03*
X0118750Y0022641D03*
X0128750Y0022641D03*
D14*
X0142018Y0040141D03*
X0142018Y0075141D03*
D15*
X0113750Y0066086D03*
X0113750Y0049197D03*
X0113750Y0031086D03*
X0113750Y0084197D03*
D16*
X0103750Y0083016D03*
X0078750Y0090141D03*
X0068750Y0090141D03*
X0058750Y0090141D03*
X0048750Y0090141D03*
X0103750Y0067267D03*
X0103750Y0048016D03*
X0103750Y0032267D03*
X0078750Y0025141D03*
X0068750Y0025141D03*
X0058750Y0025141D03*
X0048750Y0025141D03*
D17*
X0074376Y0055126D03*
X0077132Y0055126D03*
X0079691Y0055126D03*
X0082250Y0055126D03*
X0084809Y0055126D03*
X0087368Y0055126D03*
X0090124Y0055126D03*
X0090124Y0078157D03*
X0087368Y0078157D03*
X0084809Y0078157D03*
X0082250Y0078157D03*
X0079691Y0078157D03*
X0077132Y0078157D03*
X0074376Y0078157D03*
D18*
X0183750Y0089141D03*
X0183750Y0061141D03*
X0183750Y0054141D03*
X0183750Y0026141D03*
D19*
X0093703Y0035141D03*
X0087797Y0035141D03*
D20*
X0072596Y0044141D03*
X0065904Y0044141D03*
X0042250Y0069795D03*
X0042250Y0076488D03*
D21*
X0048738Y0033641D03*
X0059762Y0033641D03*
X0068238Y0033641D03*
X0079262Y0033641D03*
D22*
X0035750Y0067630D03*
X0035750Y0078653D03*
D23*
X0048350Y0056241D03*
X0057350Y0056241D03*
X0066350Y0056241D03*
D24*
X0057250Y0081041D03*
D25*
X0168750Y0085771D03*
X0168750Y0064512D03*
X0168750Y0050771D03*
X0168750Y0029512D03*
D26*
X0103750Y0037779D03*
X0103750Y0042897D03*
X0103750Y0072779D03*
X0103750Y0077897D03*
D27*
X0028695Y0056795D03*
X0028695Y0023567D03*
D28*
X0040427Y0032779D03*
X0040427Y0037701D03*
X0040427Y0042543D03*
X0040427Y0047386D03*
D29*
X0040329Y0042641D02*
X0040427Y0042543D01*
X0040329Y0042641D02*
X0031250Y0042641D01*
X0027469Y0042316D02*
X0018750Y0042316D01*
X0018750Y0043915D02*
X0023586Y0043915D01*
X0024140Y0043360D02*
X0022969Y0044532D01*
X0022969Y0049751D01*
X0024140Y0050923D01*
X0029360Y0050923D01*
X0029541Y0050741D01*
X0035655Y0050741D01*
X0035908Y0050995D01*
X0020366Y0050995D01*
X0019195Y0052167D01*
X0019195Y0061423D01*
X0020366Y0062595D01*
X0031263Y0062595D01*
X0030207Y0063652D01*
X0030207Y0071608D01*
X0031378Y0072779D01*
X0038281Y0072779D01*
X0038281Y0072789D01*
X0038634Y0073141D01*
X0038281Y0073494D01*
X0038281Y0073504D01*
X0031378Y0073504D01*
X0030207Y0074675D01*
X0030207Y0082631D01*
X0031378Y0083803D01*
X0031969Y0083803D01*
X0031969Y0088751D01*
X0033140Y0089923D01*
X0038360Y0089923D01*
X0039531Y0088751D01*
X0039531Y0083803D01*
X0040122Y0083803D01*
X0041293Y0082631D01*
X0041293Y0082253D01*
X0042152Y0082253D01*
X0042427Y0082320D01*
X0042861Y0082253D01*
X0043301Y0082253D01*
X0043562Y0082145D01*
X0043842Y0082102D01*
X0044218Y0081873D01*
X0044624Y0081705D01*
X0044824Y0081505D01*
X0045066Y0081358D01*
X0045326Y0081003D01*
X0045637Y0080693D01*
X0045745Y0080431D01*
X0045912Y0080202D01*
X0046016Y0079775D01*
X0046081Y0079619D01*
X0046218Y0079482D01*
X0046218Y0078948D01*
X0046252Y0078811D01*
X0046218Y0078596D01*
X0046218Y0073494D01*
X0045866Y0073141D01*
X0046218Y0072789D01*
X0046218Y0067687D01*
X0046252Y0067472D01*
X0046218Y0067335D01*
X0046218Y0066801D01*
X0046081Y0066664D01*
X0046016Y0066508D01*
X0045912Y0066080D01*
X0045745Y0065852D01*
X0045637Y0065590D01*
X0045326Y0065280D01*
X0045066Y0064925D01*
X0044824Y0064778D01*
X0044027Y0063981D01*
X0044027Y0061647D01*
X0044572Y0062191D01*
X0052128Y0062191D01*
X0052991Y0061328D01*
X0053295Y0061632D01*
X0053705Y0061869D01*
X0054163Y0061991D01*
X0056675Y0061991D01*
X0056675Y0056917D01*
X0058025Y0056917D01*
X0058025Y0061991D01*
X0060537Y0061991D01*
X0060995Y0061869D01*
X0061405Y0061632D01*
X0061709Y0061328D01*
X0062572Y0062191D01*
X0062740Y0062191D01*
X0060876Y0064055D01*
X0060450Y0065085D01*
X0060450Y0073698D01*
X0060876Y0074728D01*
X0061440Y0075291D01*
X0058050Y0075291D01*
X0058050Y0080241D01*
X0056450Y0080241D01*
X0056450Y0075291D01*
X0049513Y0075291D01*
X0049055Y0075414D01*
X0048645Y0075651D01*
X0048310Y0075986D01*
X0048073Y0076397D01*
X0047950Y0076855D01*
X0047950Y0080242D01*
X0056450Y0080242D01*
X0056450Y0081841D01*
X0047950Y0081841D01*
X0047950Y0085228D01*
X0047980Y0085341D01*
X0045122Y0085341D01*
X0043950Y0086513D01*
X0043950Y0093770D01*
X0045122Y0094941D01*
X0052378Y0094941D01*
X0053550Y0093770D01*
X0053550Y0086791D01*
X0054234Y0086791D01*
X0054150Y0087105D01*
X0054150Y0090141D01*
X0058750Y0090141D01*
X0058750Y0090142D01*
X0058750Y0094741D01*
X0055713Y0094741D01*
X0055255Y0094619D01*
X0054845Y0094382D01*
X0054510Y0094047D01*
X0054273Y0093636D01*
X0054150Y0093178D01*
X0054150Y0090142D01*
X0058750Y0090142D01*
X0058750Y0090142D01*
X0058750Y0094741D01*
X0061787Y0094741D01*
X0062245Y0094619D01*
X0062655Y0094382D01*
X0062990Y0094047D01*
X0063227Y0093636D01*
X0063350Y0093178D01*
X0063350Y0090142D01*
X0058750Y0090142D01*
X0058750Y0090141D01*
X0063350Y0090141D01*
X0063350Y0087105D01*
X0063266Y0086791D01*
X0063950Y0086791D01*
X0063950Y0093770D01*
X0065122Y0094941D01*
X0072378Y0094941D01*
X0073550Y0093770D01*
X0073550Y0089301D01*
X0073950Y0088901D01*
X0073950Y0093770D01*
X0075122Y0094941D01*
X0082378Y0094941D01*
X0083250Y0094070D01*
X0083250Y0096470D01*
X0084422Y0097641D01*
X0091078Y0097641D01*
X0091891Y0096828D01*
X0092145Y0097082D01*
X0092555Y0097319D01*
X0093013Y0097441D01*
X0095300Y0097441D01*
X0095300Y0091092D01*
X0096200Y0091092D01*
X0096200Y0097441D01*
X0098487Y0097441D01*
X0098945Y0097319D01*
X0099355Y0097082D01*
X0099690Y0096747D01*
X0099927Y0096336D01*
X0100050Y0095878D01*
X0100050Y0091091D01*
X0096200Y0091091D01*
X0096200Y0090191D01*
X0096200Y0083841D01*
X0098487Y0083841D01*
X0098945Y0083964D01*
X0098950Y0083967D01*
X0098950Y0079387D01*
X0100122Y0078216D01*
X0100150Y0078216D01*
X0100150Y0077181D01*
X0100698Y0075858D01*
X0100766Y0075790D01*
X0100766Y0075691D01*
X0101118Y0075338D01*
X0100766Y0074986D01*
X0100766Y0074886D01*
X0100698Y0074819D01*
X0100150Y0073495D01*
X0100150Y0072067D01*
X0100122Y0072067D01*
X0098950Y0070896D01*
X0098950Y0063639D01*
X0099266Y0063323D01*
X0095140Y0063323D01*
X0093747Y0064715D01*
X0092718Y0065141D01*
X0090210Y0065141D01*
X0095336Y0070268D01*
X0096124Y0071055D01*
X0096550Y0072085D01*
X0096550Y0081310D01*
X0096124Y0082339D01*
X0094621Y0083841D01*
X0095300Y0083841D01*
X0095300Y0090191D01*
X0096200Y0090191D01*
X0100050Y0090191D01*
X0100050Y0087744D01*
X0100122Y0087816D01*
X0103750Y0087816D01*
X0103750Y0097641D01*
X0018750Y0097641D01*
X0018750Y0017641D01*
X0111250Y0017641D01*
X0111250Y0019143D01*
X0111004Y0018964D01*
X0110401Y0018657D01*
X0109757Y0018447D01*
X0109200Y0018359D01*
X0109200Y0022191D01*
X0108300Y0022191D01*
X0108300Y0018359D01*
X0107743Y0018447D01*
X0107099Y0018657D01*
X0106496Y0018964D01*
X0105949Y0019362D01*
X0105470Y0019840D01*
X0105072Y0020388D01*
X0104765Y0020991D01*
X0104556Y0021635D01*
X0104468Y0022191D01*
X0108300Y0022191D01*
X0108300Y0023091D01*
X0104468Y0023091D01*
X0104556Y0023648D01*
X0104765Y0024292D01*
X0104943Y0024641D01*
X0103750Y0024641D01*
X0103750Y0027467D01*
X0100122Y0027467D01*
X0098950Y0028639D01*
X0098950Y0035896D01*
X0100122Y0037067D01*
X0100150Y0037067D01*
X0100150Y0038495D01*
X0100698Y0039819D01*
X0100766Y0039886D01*
X0100766Y0039986D01*
X0101118Y0040338D01*
X0100766Y0040691D01*
X0100766Y0040790D01*
X0100698Y0040858D01*
X0100150Y0042181D01*
X0100150Y0043216D01*
X0100122Y0043216D01*
X0098950Y0044387D01*
X0098950Y0051644D01*
X0100122Y0052816D01*
X0103750Y0052816D01*
X0103750Y0055523D01*
X0092711Y0055523D01*
X0092711Y0055126D01*
X0090168Y0055126D01*
X0090168Y0055126D01*
X0092711Y0055126D01*
X0092711Y0052527D01*
X0092589Y0052069D01*
X0092352Y0051658D01*
X0092116Y0051423D01*
X0093860Y0051423D01*
X0095031Y0050251D01*
X0095031Y0045032D01*
X0094062Y0044063D01*
X0094062Y0043326D01*
X0090281Y0043326D01*
X0090281Y0042957D01*
X0094062Y0042957D01*
X0094062Y0040936D01*
X0093939Y0040478D01*
X0093702Y0040068D01*
X0093367Y0039733D01*
X0092957Y0039496D01*
X0092622Y0039406D01*
X0093312Y0038716D01*
X0096106Y0038716D01*
X0097278Y0037545D01*
X0097278Y0032738D01*
X0096503Y0031963D01*
X0096503Y0026581D01*
X0097855Y0027141D01*
X0099645Y0027141D01*
X0101299Y0026456D01*
X0102565Y0025191D01*
X0103250Y0023537D01*
X0103250Y0021746D01*
X0102565Y0020092D01*
X0101299Y0018827D01*
X0099645Y0018141D01*
X0097855Y0018141D01*
X0096201Y0018827D01*
X0095186Y0019841D01*
X0093193Y0019841D01*
X0092568Y0020100D01*
X0092565Y0020092D01*
X0091299Y0018827D01*
X0089645Y0018141D01*
X0087855Y0018141D01*
X0086201Y0018827D01*
X0084935Y0020092D01*
X0084250Y0021746D01*
X0084250Y0023537D01*
X0084935Y0025191D01*
X0085950Y0026205D01*
X0085950Y0026551D01*
X0084969Y0027532D01*
X0084969Y0031992D01*
X0084222Y0032738D01*
X0084222Y0034757D01*
X0084211Y0034768D01*
X0084211Y0034416D01*
X0080037Y0034416D01*
X0080037Y0032867D01*
X0084211Y0032867D01*
X0084211Y0029861D01*
X0084089Y0029403D01*
X0083852Y0028993D01*
X0083550Y0028691D01*
X0083550Y0021513D01*
X0082378Y0020341D01*
X0075122Y0020341D01*
X0073950Y0021513D01*
X0073950Y0028770D01*
X0074489Y0029309D01*
X0074435Y0029403D01*
X0074312Y0029861D01*
X0074312Y0032867D01*
X0078487Y0032867D01*
X0078487Y0034416D01*
X0074312Y0034416D01*
X0074312Y0037422D01*
X0074435Y0037880D01*
X0074672Y0038290D01*
X0075007Y0038625D01*
X0075417Y0038862D01*
X0075875Y0038985D01*
X0076447Y0038985D01*
X0075424Y0040007D01*
X0075393Y0039976D01*
X0072531Y0039976D01*
X0072531Y0038870D01*
X0073388Y0038013D01*
X0073388Y0029270D01*
X0073219Y0029101D01*
X0073550Y0028770D01*
X0073550Y0021513D01*
X0072378Y0020341D01*
X0065122Y0020341D01*
X0063950Y0021513D01*
X0063950Y0028308D01*
X0063740Y0028098D01*
X0063550Y0028098D01*
X0063550Y0021513D01*
X0062378Y0020341D01*
X0055122Y0020341D01*
X0053950Y0021513D01*
X0053950Y0028770D01*
X0054612Y0029432D01*
X0054612Y0036923D01*
X0054211Y0037090D01*
X0053888Y0037413D01*
X0053888Y0029270D01*
X0053469Y0028851D01*
X0053550Y0028770D01*
X0053550Y0021513D01*
X0052378Y0020341D01*
X0045122Y0020341D01*
X0043950Y0021513D01*
X0043950Y0028770D01*
X0044019Y0028839D01*
X0043879Y0028979D01*
X0037411Y0028979D01*
X0038195Y0028195D01*
X0038195Y0018938D01*
X0037023Y0017767D01*
X0020366Y0017767D01*
X0019195Y0018938D01*
X0019195Y0028195D01*
X0020366Y0029367D01*
X0030634Y0029367D01*
X0029969Y0030032D01*
X0029969Y0033860D01*
X0026140Y0033860D01*
X0024969Y0035032D01*
X0024969Y0040251D01*
X0026140Y0041423D01*
X0027469Y0041423D01*
X0027469Y0043360D01*
X0024140Y0043360D01*
X0022969Y0045513D02*
X0018750Y0045513D01*
X0018750Y0047112D02*
X0022969Y0047112D01*
X0022969Y0048710D02*
X0018750Y0048710D01*
X0018750Y0050309D02*
X0023527Y0050309D01*
X0019454Y0051907D02*
X0018750Y0051907D01*
X0018750Y0053506D02*
X0019195Y0053506D01*
X0019195Y0055104D02*
X0018750Y0055104D01*
X0018750Y0056703D02*
X0019195Y0056703D01*
X0019195Y0058301D02*
X0018750Y0058301D01*
X0018750Y0059900D02*
X0019195Y0059900D01*
X0019270Y0061498D02*
X0018750Y0061498D01*
X0018750Y0063097D02*
X0030762Y0063097D01*
X0030207Y0064695D02*
X0018750Y0064695D01*
X0018750Y0066294D02*
X0030207Y0066294D01*
X0030207Y0067892D02*
X0018750Y0067892D01*
X0018750Y0069491D02*
X0030207Y0069491D01*
X0030207Y0071089D02*
X0018750Y0071089D01*
X0018750Y0072688D02*
X0031287Y0072688D01*
X0030596Y0074286D02*
X0018750Y0074286D01*
X0018750Y0075885D02*
X0030207Y0075885D01*
X0030207Y0077483D02*
X0018750Y0077483D01*
X0018750Y0079082D02*
X0030207Y0079082D01*
X0030207Y0080680D02*
X0018750Y0080680D01*
X0018750Y0082279D02*
X0030207Y0082279D01*
X0031969Y0083877D02*
X0018750Y0083877D01*
X0018750Y0085476D02*
X0031969Y0085476D01*
X0031969Y0087075D02*
X0018750Y0087075D01*
X0018750Y0088673D02*
X0031969Y0088673D01*
X0039531Y0088673D02*
X0043950Y0088673D01*
X0043950Y0090272D02*
X0018750Y0090272D01*
X0018750Y0091870D02*
X0043950Y0091870D01*
X0043950Y0093469D02*
X0018750Y0093469D01*
X0018750Y0095067D02*
X0083250Y0095067D01*
X0083446Y0096666D02*
X0018750Y0096666D01*
X0039531Y0087075D02*
X0043950Y0087075D01*
X0044987Y0085476D02*
X0039531Y0085476D01*
X0039531Y0083877D02*
X0047950Y0083877D01*
X0047950Y0082279D02*
X0042695Y0082279D01*
X0042257Y0082279D02*
X0041293Y0082279D01*
X0045642Y0080680D02*
X0056450Y0080680D01*
X0056450Y0079082D02*
X0058050Y0079082D01*
X0058050Y0077483D02*
X0056450Y0077483D01*
X0056450Y0075885D02*
X0058050Y0075885D01*
X0060694Y0074286D02*
X0046218Y0074286D01*
X0046218Y0075885D02*
X0048411Y0075885D01*
X0047950Y0077483D02*
X0046218Y0077483D01*
X0046218Y0079082D02*
X0047950Y0079082D01*
X0046218Y0072688D02*
X0060450Y0072688D01*
X0063250Y0073141D02*
X0063250Y0065641D01*
X0066250Y0062641D01*
X0066250Y0056341D01*
X0066350Y0056241D01*
X0066350Y0052130D01*
X0069794Y0048686D01*
X0070339Y0048141D01*
X0078404Y0048141D01*
X0083404Y0043141D01*
X0088429Y0038116D01*
X0089952Y0038116D01*
X0092927Y0035141D01*
X0093703Y0035141D01*
X0093703Y0022689D01*
X0093750Y0022641D01*
X0098750Y0022641D01*
X0102755Y0024733D02*
X0103750Y0024733D01*
X0103250Y0023134D02*
X0104474Y0023134D01*
X0104588Y0021536D02*
X0103163Y0021536D01*
X0102409Y0019937D02*
X0105400Y0019937D01*
X0108300Y0019937D02*
X0109200Y0019937D01*
X0109200Y0021536D02*
X0108300Y0021536D01*
X0111250Y0018339D02*
X0100121Y0018339D01*
X0097379Y0018339D02*
X0090121Y0018339D01*
X0087379Y0018339D02*
X0037595Y0018339D01*
X0038195Y0019937D02*
X0085090Y0019937D01*
X0084337Y0021536D02*
X0083550Y0021536D01*
X0083550Y0023134D02*
X0084250Y0023134D01*
X0084745Y0024733D02*
X0083550Y0024733D01*
X0083550Y0026331D02*
X0085950Y0026331D01*
X0084969Y0027930D02*
X0083550Y0027930D01*
X0084122Y0029528D02*
X0084969Y0029528D01*
X0084969Y0031127D02*
X0084211Y0031127D01*
X0084211Y0032725D02*
X0084236Y0032725D01*
X0084222Y0034324D02*
X0080037Y0034324D01*
X0078487Y0034324D02*
X0073388Y0034324D01*
X0073388Y0035922D02*
X0074312Y0035922D01*
X0074339Y0037521D02*
X0073388Y0037521D01*
X0072531Y0039119D02*
X0076313Y0039119D01*
X0080250Y0039141D02*
X0083797Y0039141D01*
X0087797Y0035141D01*
X0093703Y0035141D02*
X0093750Y0035094D01*
X0097278Y0034324D02*
X0098950Y0034324D01*
X0098976Y0035922D02*
X0097278Y0035922D01*
X0097278Y0037521D02*
X0100150Y0037521D01*
X0100408Y0039119D02*
X0092909Y0039119D01*
X0094003Y0040718D02*
X0100766Y0040718D01*
X0100150Y0042316D02*
X0094062Y0042316D01*
X0093750Y0042641D02*
X0090596Y0042641D01*
X0090096Y0043141D01*
X0093750Y0042641D02*
X0093750Y0044599D01*
X0094431Y0045280D01*
X0094431Y0050002D01*
X0093611Y0050823D01*
X0091250Y0050823D01*
X0090124Y0051949D01*
X0090124Y0055126D01*
X0092711Y0055104D02*
X0103750Y0055104D01*
X0103750Y0053506D02*
X0092711Y0053506D01*
X0092495Y0051907D02*
X0099213Y0051907D01*
X0098950Y0050309D02*
X0094973Y0050309D01*
X0095031Y0048710D02*
X0098950Y0048710D01*
X0098950Y0047112D02*
X0095031Y0047112D01*
X0095031Y0045513D02*
X0098950Y0045513D01*
X0099422Y0043915D02*
X0094062Y0043915D01*
X0091250Y0047641D02*
X0088550Y0050341D01*
X0071250Y0050341D01*
X0071250Y0065141D01*
X0072569Y0066460D01*
X0072611Y0066460D01*
X0073592Y0067441D01*
X0077161Y0067441D01*
X0081891Y0072171D01*
X0081891Y0072282D01*
X0082250Y0072641D01*
X0082250Y0072530D01*
X0082250Y0072641D02*
X0082250Y0078157D01*
X0079691Y0078157D02*
X0079691Y0073082D01*
X0076250Y0069641D01*
X0069250Y0069641D01*
X0068250Y0068641D01*
X0070750Y0073141D02*
X0070250Y0073641D01*
X0070750Y0073141D02*
X0076250Y0073141D01*
X0077132Y0074023D01*
X0077132Y0078157D01*
X0068750Y0078641D02*
X0063250Y0073141D01*
X0060450Y0071089D02*
X0046218Y0071089D01*
X0046218Y0069491D02*
X0060450Y0069491D01*
X0060450Y0067892D02*
X0046218Y0067892D01*
X0045964Y0066294D02*
X0060450Y0066294D01*
X0060611Y0064695D02*
X0044741Y0064695D01*
X0044027Y0063097D02*
X0061835Y0063097D01*
X0061878Y0061498D02*
X0061539Y0061498D01*
X0058025Y0061498D02*
X0056675Y0061498D01*
X0056675Y0059900D02*
X0058025Y0059900D01*
X0058025Y0058301D02*
X0056675Y0058301D01*
X0056675Y0055566D02*
X0058025Y0055566D01*
X0058025Y0050491D01*
X0060537Y0050491D01*
X0060995Y0050614D01*
X0061405Y0050851D01*
X0061709Y0051155D01*
X0062572Y0050291D01*
X0064229Y0050291D01*
X0064764Y0049756D01*
X0066414Y0048107D01*
X0066088Y0048107D01*
X0066088Y0044326D01*
X0065719Y0044326D01*
X0065719Y0048107D01*
X0063698Y0048107D01*
X0063506Y0048055D01*
X0063439Y0048305D01*
X0063202Y0048715D01*
X0062867Y0049050D01*
X0062457Y0049287D01*
X0061999Y0049410D01*
X0059781Y0049410D01*
X0059781Y0045826D01*
X0059412Y0045826D01*
X0059412Y0049410D01*
X0057194Y0049410D01*
X0056736Y0049287D01*
X0056409Y0049098D01*
X0055897Y0049610D01*
X0054026Y0049610D01*
X0052737Y0050900D01*
X0052991Y0051155D01*
X0053295Y0050851D01*
X0053705Y0050614D01*
X0054163Y0050491D01*
X0056675Y0050491D01*
X0056675Y0055566D01*
X0056675Y0055104D02*
X0058025Y0055104D01*
X0058025Y0053506D02*
X0056675Y0053506D01*
X0056675Y0051907D02*
X0058025Y0051907D01*
X0062554Y0050309D02*
X0053327Y0050309D01*
X0059412Y0048710D02*
X0059781Y0048710D01*
X0059781Y0047112D02*
X0059412Y0047112D01*
X0063205Y0048710D02*
X0065810Y0048710D01*
X0064764Y0049756D02*
X0064764Y0049756D01*
X0069794Y0048686D02*
X0069911Y0048570D01*
X0066088Y0047112D02*
X0065719Y0047112D01*
X0065719Y0045513D02*
X0066088Y0045513D01*
X0072596Y0044141D02*
X0075250Y0044141D01*
X0080250Y0039141D01*
X0074312Y0032725D02*
X0073388Y0032725D01*
X0073388Y0031127D02*
X0074312Y0031127D01*
X0074401Y0029528D02*
X0073388Y0029528D01*
X0073550Y0027930D02*
X0073950Y0027930D01*
X0073950Y0026331D02*
X0073550Y0026331D01*
X0073550Y0024733D02*
X0073950Y0024733D01*
X0073950Y0023134D02*
X0073550Y0023134D01*
X0073550Y0021536D02*
X0073950Y0021536D01*
X0063950Y0021536D02*
X0063550Y0021536D01*
X0063550Y0023134D02*
X0063950Y0023134D01*
X0063950Y0024733D02*
X0063550Y0024733D01*
X0063550Y0026331D02*
X0063950Y0026331D01*
X0063950Y0027930D02*
X0063550Y0027930D01*
X0054612Y0029528D02*
X0053888Y0029528D01*
X0053950Y0027930D02*
X0053550Y0027930D01*
X0053550Y0026331D02*
X0053950Y0026331D01*
X0053950Y0024733D02*
X0053550Y0024733D01*
X0053550Y0023134D02*
X0053950Y0023134D01*
X0053950Y0021536D02*
X0053550Y0021536D01*
X0043950Y0021536D02*
X0038195Y0021536D01*
X0038195Y0023134D02*
X0043950Y0023134D01*
X0043950Y0024733D02*
X0038195Y0024733D01*
X0038195Y0026331D02*
X0043950Y0026331D01*
X0043950Y0027930D02*
X0038195Y0027930D01*
X0030473Y0029528D02*
X0018750Y0029528D01*
X0018750Y0027930D02*
X0019195Y0027930D01*
X0019195Y0026331D02*
X0018750Y0026331D01*
X0018750Y0024733D02*
X0019195Y0024733D01*
X0019195Y0023134D02*
X0018750Y0023134D01*
X0018750Y0021536D02*
X0019195Y0021536D01*
X0019195Y0019937D02*
X0018750Y0019937D01*
X0018750Y0018339D02*
X0019795Y0018339D01*
X0018750Y0031127D02*
X0029969Y0031127D01*
X0029969Y0032725D02*
X0018750Y0032725D01*
X0018750Y0034324D02*
X0025677Y0034324D01*
X0024969Y0035922D02*
X0018750Y0035922D01*
X0018750Y0037521D02*
X0024969Y0037521D01*
X0024969Y0039119D02*
X0018750Y0039119D01*
X0018750Y0040718D02*
X0025436Y0040718D01*
X0028750Y0037641D02*
X0033809Y0037701D01*
X0040427Y0037701D01*
X0053888Y0035922D02*
X0054612Y0035922D01*
X0054612Y0034324D02*
X0053888Y0034324D01*
X0053888Y0032725D02*
X0054612Y0032725D01*
X0054612Y0031127D02*
X0053888Y0031127D01*
X0088750Y0030141D02*
X0088750Y0022641D01*
X0092409Y0019937D02*
X0092962Y0019937D01*
X0101424Y0026331D02*
X0103750Y0026331D01*
X0099659Y0027930D02*
X0096503Y0027930D01*
X0096503Y0029528D02*
X0098950Y0029528D01*
X0098950Y0031127D02*
X0096503Y0031127D01*
X0097264Y0032725D02*
X0098950Y0032725D01*
X0111434Y0036611D02*
X0111434Y0036979D01*
X0115215Y0036979D01*
X0115215Y0039001D01*
X0115093Y0039458D01*
X0114856Y0039869D01*
X0114521Y0040204D01*
X0114241Y0040365D01*
X0114815Y0040940D01*
X0114815Y0044647D01*
X0118856Y0044647D01*
X0118856Y0036036D01*
X0115215Y0036036D01*
X0115215Y0036611D01*
X0111434Y0036611D01*
X0115215Y0037521D02*
X0118856Y0037521D01*
X0118856Y0039119D02*
X0115184Y0039119D01*
X0114593Y0040718D02*
X0118856Y0040718D01*
X0118856Y0042316D02*
X0114815Y0042316D01*
X0114815Y0043915D02*
X0118856Y0043915D01*
X0125455Y0043915D02*
X0128413Y0043915D01*
X0128413Y0043323D02*
X0125455Y0043323D01*
X0125455Y0054749D01*
X0120663Y0059541D01*
X0116115Y0059541D01*
X0112975Y0062681D01*
X0112975Y0065311D01*
X0114525Y0065311D01*
X0114525Y0061137D01*
X0119892Y0061137D01*
X0120350Y0061259D01*
X0120761Y0061496D01*
X0121096Y0061832D01*
X0121333Y0062242D01*
X0121455Y0062700D01*
X0121455Y0065312D01*
X0114525Y0065312D01*
X0114525Y0066861D01*
X0121455Y0066861D01*
X0121455Y0069473D01*
X0121333Y0069931D01*
X0121096Y0070341D01*
X0120761Y0070676D01*
X0120350Y0070913D01*
X0119892Y0071036D01*
X0115215Y0071036D01*
X0115215Y0071611D01*
X0111434Y0071611D01*
X0111434Y0071979D01*
X0115215Y0071979D01*
X0115215Y0074001D01*
X0115093Y0074458D01*
X0114856Y0074869D01*
X0114521Y0075204D01*
X0114241Y0075365D01*
X0114363Y0075487D01*
X0114889Y0074960D01*
X0119611Y0074960D01*
X0120431Y0075780D01*
X0120431Y0079843D01*
X0121055Y0080467D01*
X0121055Y0087926D01*
X0120235Y0088746D01*
X0108750Y0088746D01*
X0108750Y0097641D01*
X0191250Y0097641D01*
X0191250Y0017641D01*
X0159292Y0017641D01*
X0159431Y0017780D01*
X0159431Y0019080D01*
X0163793Y0023442D01*
X0163800Y0023459D01*
X0163800Y0022385D01*
X0163923Y0021927D01*
X0164160Y0021517D01*
X0164495Y0021181D01*
X0164906Y0020944D01*
X0165363Y0020822D01*
X0167975Y0020822D01*
X0167975Y0028737D01*
X0169525Y0028737D01*
X0169525Y0030286D01*
X0173700Y0030286D01*
X0173700Y0036638D01*
X0173577Y0037096D01*
X0173340Y0037507D01*
X0173005Y0037842D01*
X0172594Y0038079D01*
X0172137Y0038201D01*
X0169525Y0038201D01*
X0169525Y0030286D01*
X0167975Y0030286D01*
X0167975Y0038201D01*
X0166052Y0038201D01*
X0170333Y0042482D01*
X0172480Y0042482D01*
X0173300Y0043302D01*
X0173300Y0071981D01*
X0172480Y0072801D01*
X0165020Y0072801D01*
X0164200Y0071981D01*
X0164200Y0065641D01*
X0163792Y0065641D01*
X0163611Y0065823D01*
X0158889Y0065823D01*
X0158069Y0065002D01*
X0158069Y0060280D01*
X0158889Y0059460D01*
X0163611Y0059460D01*
X0163792Y0059641D01*
X0164200Y0059641D01*
X0164200Y0044835D01*
X0159551Y0040185D01*
X0158707Y0039341D01*
X0158250Y0038238D01*
X0158250Y0026384D01*
X0155188Y0023323D01*
X0153889Y0023323D01*
X0153069Y0022502D01*
X0153069Y0017780D01*
X0153208Y0017641D01*
X0116250Y0017641D01*
X0116250Y0019626D01*
X0116541Y0019335D01*
X0117974Y0018741D01*
X0119526Y0018741D01*
X0120959Y0019335D01*
X0122056Y0020432D01*
X0122650Y0021866D01*
X0122650Y0023417D01*
X0122056Y0024851D01*
X0121858Y0025048D01*
X0121967Y0025157D01*
X0122545Y0025735D01*
X0124854Y0023426D01*
X0124850Y0023417D01*
X0124850Y0021866D01*
X0125444Y0020432D01*
X0126541Y0019335D01*
X0127974Y0018741D01*
X0129526Y0018741D01*
X0130959Y0019335D01*
X0132056Y0020432D01*
X0132650Y0021866D01*
X0132650Y0023417D01*
X0132056Y0024851D01*
X0130959Y0025948D01*
X0129526Y0026541D01*
X0127974Y0026541D01*
X0127965Y0026538D01*
X0125455Y0029047D01*
X0125455Y0036960D01*
X0128413Y0036960D01*
X0128413Y0028144D01*
X0129233Y0027324D01*
X0154802Y0027324D01*
X0155622Y0028144D01*
X0155622Y0052139D01*
X0154802Y0052959D01*
X0129233Y0052959D01*
X0128413Y0052139D01*
X0128413Y0043323D01*
X0128413Y0045513D02*
X0125455Y0045513D01*
X0125455Y0047112D02*
X0128413Y0047112D01*
X0128413Y0048710D02*
X0125455Y0048710D01*
X0125455Y0050309D02*
X0128413Y0050309D01*
X0128413Y0051907D02*
X0125455Y0051907D01*
X0125455Y0053506D02*
X0164200Y0053506D01*
X0164200Y0051907D02*
X0155622Y0051907D01*
X0155622Y0050309D02*
X0164200Y0050309D01*
X0164200Y0048710D02*
X0155622Y0048710D01*
X0155622Y0047112D02*
X0164200Y0047112D01*
X0164200Y0045513D02*
X0155622Y0045513D01*
X0155622Y0043915D02*
X0163281Y0043915D01*
X0161682Y0042316D02*
X0155622Y0042316D01*
X0155622Y0040718D02*
X0160084Y0040718D01*
X0158615Y0039119D02*
X0155622Y0039119D01*
X0155622Y0037521D02*
X0158250Y0037521D01*
X0158250Y0035922D02*
X0155622Y0035922D01*
X0155622Y0034324D02*
X0158250Y0034324D01*
X0158250Y0032725D02*
X0155622Y0032725D01*
X0155622Y0031127D02*
X0158250Y0031127D01*
X0158250Y0029528D02*
X0155622Y0029528D01*
X0155408Y0027930D02*
X0158250Y0027930D01*
X0158197Y0026331D02*
X0130034Y0026331D01*
X0128628Y0027930D02*
X0126573Y0027930D01*
X0125455Y0029528D02*
X0128413Y0029528D01*
X0128413Y0031127D02*
X0125455Y0031127D01*
X0125455Y0032725D02*
X0128413Y0032725D01*
X0128413Y0034324D02*
X0125455Y0034324D01*
X0125455Y0035922D02*
X0128413Y0035922D01*
X0118856Y0031861D02*
X0118856Y0030312D01*
X0114525Y0030312D01*
X0114525Y0031861D01*
X0118856Y0031861D01*
X0118856Y0031127D02*
X0114525Y0031127D01*
X0118750Y0025051D02*
X0121056Y0027357D01*
X0121056Y0052926D01*
X0120235Y0053746D01*
X0120145Y0053746D01*
X0118750Y0055141D01*
X0114292Y0055141D01*
X0111111Y0058323D01*
X0093069Y0058323D01*
X0091250Y0060141D01*
X0088750Y0060141D01*
X0087368Y0058760D01*
X0087368Y0055126D01*
X0085168Y0055485D02*
X0085168Y0059671D01*
X0087839Y0062341D01*
X0092161Y0062341D01*
X0093980Y0060523D01*
X0112022Y0060523D01*
X0115203Y0057341D01*
X0119751Y0057341D01*
X0123256Y0053837D01*
X0123256Y0028136D01*
X0128750Y0022641D01*
X0131561Y0019937D02*
X0153069Y0019937D01*
X0153069Y0021536D02*
X0132513Y0021536D01*
X0132650Y0023134D02*
X0153700Y0023134D01*
X0156598Y0024733D02*
X0132105Y0024733D01*
X0124850Y0023134D02*
X0122650Y0023134D01*
X0122105Y0024733D02*
X0123548Y0024733D01*
X0118750Y0025051D02*
X0118750Y0022641D01*
X0121561Y0019937D02*
X0125939Y0019937D01*
X0124987Y0021536D02*
X0122513Y0021536D01*
X0116250Y0018339D02*
X0153069Y0018339D01*
X0159431Y0018339D02*
X0191250Y0018339D01*
X0191250Y0019937D02*
X0160288Y0019937D01*
X0161887Y0021536D02*
X0164149Y0021536D01*
X0163800Y0023134D02*
X0163485Y0023134D01*
X0167975Y0023134D02*
X0169525Y0023134D01*
X0169525Y0024733D02*
X0167975Y0024733D01*
X0167975Y0026331D02*
X0169525Y0026331D01*
X0169525Y0027930D02*
X0167975Y0027930D01*
X0169525Y0028737D02*
X0169525Y0020822D01*
X0172137Y0020822D01*
X0172594Y0020944D01*
X0173005Y0021181D01*
X0173340Y0021517D01*
X0173577Y0021927D01*
X0173700Y0022385D01*
X0173700Y0028737D01*
X0169525Y0028737D01*
X0169525Y0029528D02*
X0181197Y0029528D01*
X0181371Y0029702D02*
X0180189Y0028521D01*
X0179550Y0026977D01*
X0179550Y0025306D01*
X0180189Y0023762D01*
X0181371Y0022581D01*
X0182915Y0021941D01*
X0184585Y0021941D01*
X0186129Y0022581D01*
X0187311Y0023762D01*
X0187950Y0025306D01*
X0187950Y0026977D01*
X0187311Y0028521D01*
X0186129Y0029702D01*
X0184585Y0030341D01*
X0182915Y0030341D01*
X0181371Y0029702D01*
X0179945Y0027930D02*
X0173700Y0027930D01*
X0173120Y0029512D02*
X0178750Y0035141D01*
X0178750Y0080141D01*
X0176250Y0082641D01*
X0171880Y0082641D01*
X0168750Y0085771D01*
X0169525Y0085476D02*
X0181624Y0085476D01*
X0181371Y0085581D02*
X0182915Y0084941D01*
X0184585Y0084941D01*
X0186129Y0085581D01*
X0187311Y0086762D01*
X0187950Y0088306D01*
X0187950Y0089977D01*
X0187311Y0091521D01*
X0186129Y0092702D01*
X0184585Y0093341D01*
X0182915Y0093341D01*
X0181371Y0092702D01*
X0180189Y0091521D01*
X0179550Y0089977D01*
X0179550Y0088306D01*
X0180189Y0086762D01*
X0181371Y0085581D01*
X0180060Y0087075D02*
X0173700Y0087075D01*
X0173700Y0086546D02*
X0173700Y0092898D01*
X0173577Y0093356D01*
X0173340Y0093766D01*
X0173005Y0094102D01*
X0172594Y0094339D01*
X0172137Y0094461D01*
X0169525Y0094461D01*
X0169525Y0086546D01*
X0173700Y0086546D01*
X0173700Y0084997D02*
X0173700Y0078645D01*
X0173577Y0078187D01*
X0173340Y0077776D01*
X0173005Y0077441D01*
X0172594Y0077204D01*
X0172137Y0077082D01*
X0169525Y0077082D01*
X0169525Y0084997D01*
X0169525Y0086546D01*
X0167975Y0086546D01*
X0167975Y0084997D01*
X0163800Y0084997D01*
X0163800Y0078645D01*
X0163923Y0078187D01*
X0164160Y0077776D01*
X0164495Y0077441D01*
X0164906Y0077204D01*
X0165363Y0077082D01*
X0167975Y0077082D01*
X0167975Y0084997D01*
X0169525Y0084997D01*
X0173700Y0084997D01*
X0173700Y0083877D02*
X0191250Y0083877D01*
X0191250Y0085476D02*
X0185876Y0085476D01*
X0187440Y0087075D02*
X0191250Y0087075D01*
X0191250Y0088673D02*
X0187950Y0088673D01*
X0187828Y0090272D02*
X0191250Y0090272D01*
X0191250Y0091870D02*
X0186961Y0091870D01*
X0191250Y0093469D02*
X0173512Y0093469D01*
X0173700Y0091870D02*
X0180539Y0091870D01*
X0179672Y0090272D02*
X0173700Y0090272D01*
X0173700Y0088673D02*
X0179550Y0088673D01*
X0169525Y0088673D02*
X0167975Y0088673D01*
X0167975Y0090272D02*
X0169525Y0090272D01*
X0169525Y0091870D02*
X0167975Y0091870D01*
X0167975Y0093469D02*
X0169525Y0093469D01*
X0167975Y0094461D02*
X0165363Y0094461D01*
X0164906Y0094339D01*
X0164495Y0094102D01*
X0164160Y0093766D01*
X0163923Y0093356D01*
X0163800Y0092898D01*
X0163800Y0086546D01*
X0167975Y0086546D01*
X0167975Y0094461D01*
X0163988Y0093469D02*
X0108750Y0093469D01*
X0108750Y0091870D02*
X0163800Y0091870D01*
X0163800Y0090272D02*
X0108750Y0090272D01*
X0103750Y0090272D02*
X0096200Y0090272D01*
X0096200Y0088673D02*
X0095300Y0088673D01*
X0095300Y0087075D02*
X0096200Y0087075D01*
X0096200Y0085476D02*
X0095300Y0085476D01*
X0095300Y0083877D02*
X0096200Y0083877D01*
X0098621Y0083877D02*
X0098950Y0083877D01*
X0098950Y0082279D02*
X0096149Y0082279D01*
X0096550Y0080680D02*
X0098950Y0080680D01*
X0099255Y0079082D02*
X0096550Y0079082D01*
X0096550Y0077483D02*
X0100150Y0077483D01*
X0100687Y0075885D02*
X0096550Y0075885D01*
X0096550Y0074286D02*
X0100478Y0074286D01*
X0100150Y0072688D02*
X0096550Y0072688D01*
X0096138Y0071089D02*
X0099143Y0071089D01*
X0098950Y0069491D02*
X0094559Y0069491D01*
X0092961Y0067892D02*
X0098950Y0067892D01*
X0098950Y0066294D02*
X0091362Y0066294D01*
X0093767Y0064695D02*
X0098950Y0064695D01*
X0112975Y0064695D02*
X0114525Y0064695D01*
X0114695Y0065141D02*
X0113750Y0066086D01*
X0114525Y0066294D02*
X0128413Y0066294D01*
X0128413Y0067892D02*
X0121455Y0067892D01*
X0121451Y0069491D02*
X0128413Y0069491D01*
X0128413Y0071089D02*
X0115215Y0071089D01*
X0115215Y0072688D02*
X0123161Y0072688D01*
X0123069Y0072780D02*
X0123889Y0071960D01*
X0128413Y0071960D01*
X0128413Y0063144D01*
X0129233Y0062324D01*
X0154802Y0062324D01*
X0155622Y0063144D01*
X0155622Y0087139D01*
X0154802Y0087959D01*
X0129233Y0087959D01*
X0128413Y0087139D01*
X0128413Y0078323D01*
X0123889Y0078323D01*
X0123069Y0077502D01*
X0123069Y0072780D01*
X0121250Y0072641D02*
X0121250Y0077641D01*
X0126250Y0082641D01*
X0126250Y0090141D01*
X0123750Y0090141D01*
X0121250Y0092641D01*
X0118750Y0095141D01*
X0111250Y0095141D01*
X0108750Y0095067D02*
X0191250Y0095067D01*
X0191250Y0096666D02*
X0108750Y0096666D01*
X0103750Y0096666D02*
X0099737Y0096666D01*
X0100050Y0095067D02*
X0103750Y0095067D01*
X0103750Y0093469D02*
X0100050Y0093469D01*
X0100050Y0091870D02*
X0103750Y0091870D01*
X0103750Y0088673D02*
X0100050Y0088673D01*
X0096200Y0091870D02*
X0095300Y0091870D01*
X0095300Y0093469D02*
X0096200Y0093469D01*
X0096200Y0095067D02*
X0095300Y0095067D01*
X0095300Y0096666D02*
X0096200Y0096666D01*
X0087750Y0090641D02*
X0086250Y0089141D01*
X0086250Y0085341D01*
X0073550Y0085341D01*
X0068750Y0090141D01*
X0073550Y0090272D02*
X0073950Y0090272D01*
X0073950Y0091870D02*
X0073550Y0091870D01*
X0073550Y0093469D02*
X0073950Y0093469D01*
X0063950Y0093469D02*
X0063272Y0093469D01*
X0063350Y0091870D02*
X0063950Y0091870D01*
X0063950Y0090272D02*
X0063350Y0090272D01*
X0063350Y0088673D02*
X0063950Y0088673D01*
X0063950Y0087075D02*
X0063342Y0087075D01*
X0058750Y0090272D02*
X0058750Y0090272D01*
X0058750Y0091870D02*
X0058750Y0091870D01*
X0058750Y0093469D02*
X0058750Y0093469D01*
X0054228Y0093469D02*
X0053550Y0093469D01*
X0053550Y0091870D02*
X0054150Y0091870D01*
X0054150Y0090272D02*
X0053550Y0090272D01*
X0053550Y0088673D02*
X0054150Y0088673D01*
X0054158Y0087075D02*
X0053550Y0087075D01*
X0068750Y0082641D02*
X0068750Y0078641D01*
X0068750Y0082641D02*
X0088750Y0082641D01*
X0090124Y0081267D01*
X0090124Y0078157D01*
X0093750Y0080753D02*
X0089161Y0085341D01*
X0086250Y0085341D01*
X0093750Y0080753D02*
X0093750Y0072641D01*
X0082250Y0061141D01*
X0082250Y0055126D01*
X0084809Y0055126D02*
X0085168Y0055485D01*
X0079691Y0055126D02*
X0079691Y0063701D01*
X0079250Y0064141D01*
X0074750Y0060141D02*
X0077132Y0057760D01*
X0077132Y0055126D01*
X0067250Y0057141D02*
X0066350Y0056241D01*
X0053161Y0061498D02*
X0052822Y0061498D01*
X0108750Y0055141D02*
X0108750Y0050141D01*
X0112805Y0050141D01*
X0113750Y0049197D01*
X0125100Y0055104D02*
X0164200Y0055104D01*
X0164200Y0056703D02*
X0123501Y0056703D01*
X0121903Y0058301D02*
X0164200Y0058301D01*
X0158450Y0059900D02*
X0115756Y0059900D01*
X0114525Y0061498D02*
X0114158Y0061498D01*
X0114525Y0063097D02*
X0112975Y0063097D01*
X0120763Y0061498D02*
X0158069Y0061498D01*
X0158069Y0063097D02*
X0155575Y0063097D01*
X0155622Y0064695D02*
X0158069Y0064695D01*
X0155622Y0066294D02*
X0164200Y0066294D01*
X0164200Y0067892D02*
X0155622Y0067892D01*
X0155622Y0069491D02*
X0164200Y0069491D01*
X0164200Y0071089D02*
X0155622Y0071089D01*
X0155622Y0072688D02*
X0164907Y0072688D01*
X0172593Y0072688D02*
X0191250Y0072688D01*
X0191250Y0074286D02*
X0155622Y0074286D01*
X0155622Y0075885D02*
X0191250Y0075885D01*
X0191250Y0077483D02*
X0173047Y0077483D01*
X0173700Y0079082D02*
X0191250Y0079082D01*
X0191250Y0080680D02*
X0173700Y0080680D01*
X0173700Y0082279D02*
X0191250Y0082279D01*
X0191250Y0071089D02*
X0173300Y0071089D01*
X0173300Y0069491D02*
X0191250Y0069491D01*
X0191250Y0067892D02*
X0173300Y0067892D01*
X0173300Y0066294D02*
X0191250Y0066294D01*
X0191250Y0064695D02*
X0186136Y0064695D01*
X0186129Y0064702D02*
X0184585Y0065341D01*
X0182915Y0065341D01*
X0181371Y0064702D01*
X0180189Y0063521D01*
X0179550Y0061977D01*
X0179550Y0060306D01*
X0180189Y0058762D01*
X0181310Y0057641D01*
X0180189Y0056521D01*
X0179550Y0054977D01*
X0179550Y0053306D01*
X0180189Y0051762D01*
X0181371Y0050581D01*
X0182915Y0049941D01*
X0184585Y0049941D01*
X0186129Y0050581D01*
X0187311Y0051762D01*
X0187950Y0053306D01*
X0187950Y0054977D01*
X0187311Y0056521D01*
X0186190Y0057641D01*
X0187311Y0058762D01*
X0187950Y0060306D01*
X0187950Y0061977D01*
X0187311Y0063521D01*
X0186129Y0064702D01*
X0187486Y0063097D02*
X0191250Y0063097D01*
X0191250Y0061498D02*
X0187950Y0061498D01*
X0187782Y0059900D02*
X0191250Y0059900D01*
X0191250Y0058301D02*
X0186849Y0058301D01*
X0187128Y0056703D02*
X0191250Y0056703D01*
X0191250Y0055104D02*
X0187897Y0055104D01*
X0187950Y0053506D02*
X0191250Y0053506D01*
X0191250Y0051907D02*
X0187371Y0051907D01*
X0185472Y0050309D02*
X0191250Y0050309D01*
X0191250Y0048710D02*
X0173300Y0048710D01*
X0173300Y0050309D02*
X0182028Y0050309D01*
X0180129Y0051907D02*
X0173300Y0051907D01*
X0173300Y0053506D02*
X0179550Y0053506D01*
X0179603Y0055104D02*
X0173300Y0055104D01*
X0173300Y0056703D02*
X0180372Y0056703D01*
X0180650Y0058301D02*
X0173300Y0058301D01*
X0173300Y0059900D02*
X0179718Y0059900D01*
X0179550Y0061498D02*
X0173300Y0061498D01*
X0173300Y0063097D02*
X0180014Y0063097D01*
X0181364Y0064695D02*
X0173300Y0064695D01*
X0168750Y0064512D02*
X0168750Y0050771D01*
X0173300Y0047112D02*
X0191250Y0047112D01*
X0191250Y0045513D02*
X0173300Y0045513D01*
X0173300Y0043915D02*
X0191250Y0043915D01*
X0191250Y0042316D02*
X0170167Y0042316D01*
X0168569Y0040718D02*
X0191250Y0040718D01*
X0191250Y0039119D02*
X0166970Y0039119D01*
X0167975Y0037521D02*
X0169525Y0037521D01*
X0169525Y0035922D02*
X0167975Y0035922D01*
X0167975Y0034324D02*
X0169525Y0034324D01*
X0169525Y0032725D02*
X0167975Y0032725D01*
X0167975Y0031127D02*
X0169525Y0031127D01*
X0168750Y0029512D02*
X0173120Y0029512D01*
X0173700Y0031127D02*
X0191250Y0031127D01*
X0191250Y0032725D02*
X0173700Y0032725D01*
X0173700Y0034324D02*
X0191250Y0034324D01*
X0191250Y0035922D02*
X0173700Y0035922D01*
X0173326Y0037521D02*
X0191250Y0037521D01*
X0191250Y0029528D02*
X0186303Y0029528D01*
X0187555Y0027930D02*
X0191250Y0027930D01*
X0191250Y0026331D02*
X0187950Y0026331D01*
X0187712Y0024733D02*
X0191250Y0024733D01*
X0191250Y0023134D02*
X0186682Y0023134D01*
X0191250Y0021536D02*
X0173351Y0021536D01*
X0173700Y0023134D02*
X0180818Y0023134D01*
X0179788Y0024733D02*
X0173700Y0024733D01*
X0173700Y0026331D02*
X0179550Y0026331D01*
X0169525Y0021536D02*
X0167975Y0021536D01*
X0128460Y0063097D02*
X0121455Y0063097D01*
X0121455Y0064695D02*
X0128413Y0064695D01*
X0123750Y0067641D02*
X0123750Y0070141D01*
X0121250Y0072641D01*
X0123069Y0074286D02*
X0115139Y0074286D01*
X0117250Y0078141D02*
X0111596Y0078141D01*
X0111250Y0078488D01*
X0120431Y0079082D02*
X0128413Y0079082D01*
X0128413Y0080680D02*
X0121055Y0080680D01*
X0121055Y0082279D02*
X0128413Y0082279D01*
X0128413Y0083877D02*
X0121055Y0083877D01*
X0121055Y0085476D02*
X0128413Y0085476D01*
X0128413Y0087075D02*
X0121055Y0087075D01*
X0120309Y0088673D02*
X0163800Y0088673D01*
X0163800Y0087075D02*
X0155622Y0087075D01*
X0155622Y0085476D02*
X0167975Y0085476D01*
X0167975Y0083877D02*
X0169525Y0083877D01*
X0169525Y0082279D02*
X0167975Y0082279D01*
X0167975Y0080680D02*
X0169525Y0080680D01*
X0169525Y0079082D02*
X0167975Y0079082D01*
X0167975Y0077483D02*
X0169525Y0077483D01*
X0164453Y0077483D02*
X0155622Y0077483D01*
X0155622Y0079082D02*
X0163800Y0079082D01*
X0163800Y0080680D02*
X0155622Y0080680D01*
X0155622Y0082279D02*
X0163800Y0082279D01*
X0163800Y0083877D02*
X0155622Y0083877D01*
X0167975Y0087075D02*
X0169525Y0087075D01*
X0123069Y0077483D02*
X0120431Y0077483D01*
X0120431Y0075885D02*
X0123069Y0075885D01*
D30*
X0126250Y0075141D03*
X0117250Y0078141D03*
X0111250Y0095141D03*
X0068750Y0082641D03*
X0070250Y0073641D03*
X0068250Y0068641D03*
X0079250Y0064141D03*
X0074750Y0060141D03*
X0091250Y0047641D03*
X0108750Y0055141D03*
X0123750Y0060141D03*
X0161250Y0062641D03*
X0127250Y0040141D03*
X0116250Y0037641D03*
X0088750Y0030141D03*
X0068750Y0039141D03*
X0033750Y0032641D03*
X0028750Y0037641D03*
X0031250Y0042641D03*
X0026750Y0047141D03*
X0035750Y0086141D03*
X0156250Y0020141D03*
D31*
X0161250Y0025141D01*
X0161250Y0037641D01*
X0168750Y0045141D01*
X0168750Y0050771D01*
X0168750Y0057641D02*
X0168750Y0064512D01*
X0166880Y0062641D01*
X0161250Y0062641D01*
X0142018Y0075141D02*
X0126250Y0075141D01*
X0116314Y0063523D02*
X0113750Y0066086D01*
X0111250Y0068586D01*
X0111250Y0071795D01*
X0103750Y0072779D02*
X0103750Y0067267D01*
X0116314Y0063523D02*
X0117813Y0063523D01*
X0121194Y0060141D01*
X0123750Y0060141D01*
X0113750Y0049197D02*
X0112195Y0047641D01*
X0111250Y0047641D01*
X0111250Y0043488D01*
X0103750Y0042897D02*
X0103750Y0048016D01*
X0103750Y0037779D02*
X0103750Y0032267D01*
X0111250Y0033586D02*
X0113750Y0031086D01*
X0115305Y0031086D01*
X0116250Y0030141D01*
X0116250Y0037641D01*
X0111250Y0036795D02*
X0111250Y0033586D01*
X0127250Y0040141D02*
X0142018Y0040141D01*
X0103750Y0077897D02*
X0103750Y0083016D01*
X0111250Y0081697D02*
X0113750Y0084197D01*
X0111250Y0081697D02*
X0111250Y0078488D01*
X0048350Y0056241D02*
X0048350Y0050195D01*
X0052904Y0045641D01*
X0052904Y0043488D01*
X0056250Y0040141D01*
X0060250Y0040141D01*
X0060250Y0034153D01*
X0059762Y0033641D01*
X0068238Y0033641D02*
X0068750Y0034130D01*
X0068750Y0039141D01*
X0049738Y0033653D02*
X0048250Y0035141D01*
X0048250Y0043641D01*
X0044750Y0047141D01*
X0040671Y0047141D01*
X0040427Y0047386D01*
X0040183Y0047141D01*
X0026750Y0047141D01*
X0040427Y0047386D02*
X0040427Y0065472D01*
X0042585Y0067630D01*
X0042250Y0069795D01*
X0042585Y0067630D02*
X0035750Y0067630D01*
X0042250Y0076488D02*
X0042585Y0078653D01*
X0035750Y0078653D01*
X0035750Y0086141D01*
X0048738Y0033641D02*
X0049738Y0033653D01*
X0040427Y0032779D02*
X0040289Y0032641D01*
X0033750Y0032641D01*
D32*
X0122195Y0066086D02*
X0123750Y0067641D01*
D33*
X0166250Y0080141D02*
X0166250Y0087641D01*
X0166880Y0087641D01*
X0168750Y0085771D01*
X0166250Y0080141D02*
X0173750Y0080141D01*
X0173750Y0092641D01*
X0121250Y0092641D01*
X0168750Y0035141D02*
X0171250Y0035141D01*
X0171250Y0025141D01*
X0171250Y0022641D02*
X0168750Y0022641D01*
X0168750Y0029512D01*
X0168750Y0035141D01*
M02*
