%
M48
M72
T01C0.0236
T02C0.0315
%
T01
X6250Y6750
X12000Y6000
X12100Y2500
X15000Y500
X2050Y3200
X15500Y4750
X2950Y7100
X10500Y8000
X2750Y1750
X6250Y2400
X11000Y2250
X11750Y4500
X6400Y5850
X11100Y6300
X10250Y4000
X6200Y5350
X8500Y3250
X8250Y1500
X2500Y2750
X7300Y4900
X2250Y2250
X6850Y4500
T02
X6250Y7500
X7250Y7500
X5250Y7500
X4250Y7500
X4250Y1000
X5250Y1000
X6250Y1000
X7250Y1000
X9750Y5213
X9750Y6787
X17750Y4600
X17750Y7400
X9750Y1713
X9750Y3287
X17750Y1100
X17750Y3900
M30
